<svg width="45" height="21" viewBox="0 0 45 21" fill="none" xmlns="http://www.w3.org/2000/svg">
<path d="M18.445 6.59061C18.445 6.59061 17.4161 6.37557 17.4177 4.90654C17.4194 3.43751 17.4923 3.20531 17.5713 3.11043C17.6502 3.01554 18.3446 2.95141 18.6853 3.04773L24.1034 5.09917" fill="white"></path>
<path d="M18.445 6.59061C18.445 6.59061 17.4161 6.37557 17.4177 4.90654C17.4194 3.43751 17.4923 3.20531 17.5713 3.11043C17.6502 3.01554 18.3446 2.95141 18.6853 3.04773L24.1034 5.09917" stroke="#010101" stroke-width="0.619844" stroke-miterlimit="10"></path>
<path d="M1 17.8853C1 17.7163 1.28513 16.8397 1.28513 16.8397L2.14075 16.2377C2.14075 16.2377 0.77828 13.3859 1.88732 7.96755L2.3944 4.76725C2.3944 4.76725 2.48953 3.24625 3.50345 3.78503C4.51737 4.32382 6.1018 7.84096 10.0626 7.01704L18.8398 4.86237C18.8398 4.86237 21.3748 3.88015 24.0997 5.11579C26.8246 6.35142 34.1759 9.61538 35.4752 10.0588C36.7745 10.5022 41.6224 12.2769 42.4463 12.6571C43.2703 13.0374 44.0307 14.3364 43.999 15.1921L43.8124 15.266L43.7702 15.5969L43.897 15.8081L42.9217 16.6854C42.5953 16.9789 42.2049 17.192 41.7812 17.3074L41.4999 17.3842L41.3616 17.1615L40.8746 17.4066L40.9487 17.6462L39.6299 17.9699L39.5693 17.7215L38.2645 17.9039L38.2972 18.2012L37.0594 18.4155L37.0368 18.118L35.9304 18.2736L35.9091 18.6539L34.6716 18.7979L34.6399 18.4389L33.5854 18.5695L33.5871 18.9481L32.434 19.0661L32.4411 18.6436L31.2229 18.7247L31.2307 19.088L29.941 19.2096L29.9093 18.8189L28.857 18.8725L28.8465 19.274L27.6604 19.2413L27.6318 18.9452L26.5123 19.0098L26.5159 19.3484L25.2242 19.3355L25.2449 18.9951L24.1464 19.0089L24.1147 19.3152L22.9422 19.2623L22.8471 18.935L21.7865 18.9455L21.7231 19.2623L20.4767 19.294L20.4345 18.935L19.2411 18.9562L19.1881 19.252L17.9101 19.2733C17.9101 19.2733 17.8044 18.9669 17.8362 18.9564C17.8679 18.9459 17.023 18.9459 17.023 18.9459L17.0017 19.3262L15.5971 19.3367L15.6183 19.0094L14.5832 19.0306L14.6044 19.432L13.1997 19.4533L13.2007 19.1214L11.9429 19.1152L11.9331 19.4664L10.538 19.432L10.5394 19.0744L9.55575 19.0518L9.53453 19.4742L8.14036 19.453L8.16587 19.1143L6.86301 19.0957L6.83893 19.4549L5.4047 19.3898L5.39421 19.0096L3.32394 18.8301L3.18661 19.0625L1.76074 18.7667L1.80294 18.323L1.00023 17.8865L1 17.8853Z" fill="white"></path>
<path d="M2.77734 3.42734C3.04047 3.31133 3.33856 3.34675 3.64844 3.51133C3.81599 3.60036 3.97817 3.74056 4.13184 3.89218C4.28776 4.04607 4.45521 4.23209 4.62988 4.42636C4.98427 4.82052 5.38714 5.2683 5.87598 5.67343C6.78159 6.42393 7.97447 7.02261 9.65625 6.775L9.99902 6.71347L18.752 4.56406C18.7557 4.56271 18.7601 4.56177 18.7646 4.56015C18.7864 4.55235 18.8174 4.54103 18.8574 4.52793C18.9376 4.50167 19.0535 4.46642 19.2002 4.42832C19.4937 4.3521 19.9126 4.26473 20.4189 4.21738C21.4309 4.12277 22.8031 4.18771 24.2275 4.83359C26.9616 6.07338 34.2936 9.32777 35.5752 9.76523C36.8717 10.2077 41.7349 11.9874 42.5762 12.3756C43.0658 12.6015 43.5022 13.0788 43.8086 13.5865C44.0765 14.0305 44.2735 14.5446 44.3057 15.0084L44.3086 15.2037L44.3008 15.4059L44.1133 15.4801L44.0957 15.4859L44.0908 15.5279L44.1631 15.649L44.2939 15.8678L44.1045 16.0387L43.1289 16.9156C42.7666 17.2414 42.3327 17.4769 41.8623 17.6051L41.8633 17.6061L41.5811 17.6832L41.3584 17.7437L41.249 17.568L41.3418 17.8687L41.0225 17.9469L39.4023 18.3453L39.334 18.067L38.6055 18.1686L38.6367 18.4566L37.1123 18.7213L36.7764 18.7789L36.752 18.4703L36.2256 18.5445L36.2188 18.6715L36.2041 18.9312L34.707 19.1061L34.3906 19.1422L34.3633 18.8248L34.3594 18.7857L33.8965 18.8434L33.8975 18.9469L33.8984 19.2281L33.6191 19.2564L32.4658 19.3746L32.1182 19.4098L32.124 19.0611L32.125 18.9742L31.5391 19.0133L31.541 19.0816L31.5469 19.3697L31.2598 19.3971L29.6572 19.5475L29.6318 19.235L29.624 19.1432L29.1592 19.1676L29.1484 19.5924L28.8379 19.5836L27.6523 19.5514L27.3779 19.5436L27.3516 19.2711L26.8252 19.3014L26.8262 19.3453L26.8291 19.6617L26.5127 19.6578L24.8955 19.6422L24.915 19.317V19.3092L24.4258 19.315L24.4229 19.3473L24.3926 19.6383L24.1006 19.6246L22.9287 19.5719L22.7061 19.5621L22.6445 19.3492L22.6143 19.2467L22.041 19.2525L22.0273 19.3228L21.9785 19.566L21.7305 19.5719L20.4844 19.6041L20.2021 19.6109L20.1689 19.3297L20.1592 19.2496L19.501 19.2613L19.4932 19.3062L19.4482 19.5572L19.1934 19.5621L17.915 19.5836L17.6904 19.5865L17.6172 19.3746L17.6162 19.3727C17.616 19.3719 17.6156 19.3708 17.6152 19.3697C17.6144 19.3672 17.6138 19.3634 17.6123 19.359C17.6092 19.3498 17.6047 19.3364 17.5996 19.3209C17.5939 19.3032 17.5872 19.2817 17.5801 19.2584C17.5355 19.2579 17.4877 19.2577 17.4395 19.2574C17.3977 19.2572 17.3558 19.2566 17.3154 19.2564L17.3115 19.3434L17.2949 19.6344L15.5996 19.6471L15.2666 19.649L15.2871 19.3258L14.9092 19.3336L14.9141 19.4156L14.9307 19.7369L12.8887 19.7682L12.8896 19.4527V19.4293L12.2441 19.4264L12.2432 19.4752L12.2344 19.7838L10.5303 19.7418L10.2266 19.734L10.2285 19.4312V19.3766L9.84961 19.3687L9.8291 19.7887L9.53027 19.7838L8.13574 19.7633L7.80664 19.7574L7.83105 19.4293V19.4195L7.15234 19.4098L7.14844 19.4752L7.12793 19.7779L5.39062 19.6998L5.10254 19.6861L5.09473 19.398L5.09082 19.2936L3.49023 19.1559L3.45312 19.2203L3.34082 19.4107L1.42578 19.0133L1.45215 18.7369L1.47461 18.4967L0.852539 18.1588L0.723633 18.0894L0.696289 17.9459L0.69043 17.9156V17.8853C0.69043 17.8323 0.699853 17.775 0.708008 17.733C0.717318 17.6851 0.730055 17.6306 0.744141 17.5748C0.772393 17.4628 0.809578 17.3323 0.845703 17.2105C0.881941 17.0884 0.918291 16.9721 0.945312 16.8863C0.95886 16.8433 0.969602 16.8075 0.977539 16.7828C0.981467 16.7706 0.98516 16.7611 0.987305 16.7545C0.98835 16.7513 0.98869 16.7484 0.989258 16.7467L0.990234 16.7447L1.02246 16.6451L1.10645 16.5865L1.76074 16.1256C1.72867 16.0395 1.69042 15.9311 1.64941 15.8004C1.53433 15.4334 1.3945 14.8915 1.29102 14.1793C1.08431 12.7566 1.02232 10.6575 1.58105 7.91953L2.08789 4.71836C2.08904 4.70545 2.09051 4.68865 2.09277 4.66855C2.09801 4.62223 2.10623 4.55731 2.12012 4.48203C2.14735 4.33444 2.19722 4.13109 2.28906 3.94004C2.37895 3.75318 2.52899 3.53689 2.77734 3.42734ZM3.3584 4.05918C3.16149 3.95454 3.06709 3.97719 3.02734 3.99472C2.97272 4.01886 2.90825 4.08263 2.84766 4.20859C2.78916 4.33027 2.75174 4.47375 2.72949 4.59433C2.71866 4.65304 2.71193 4.70322 2.70801 4.73789C2.70607 4.75508 2.70482 4.76852 2.7041 4.77695V4.78672L2.70312 4.80136L2.7002 4.81601L2.19336 8.01621L2.19141 8.02988C1.64421 10.7033 1.70836 12.7351 1.90527 14.0904C2.00377 14.7682 2.13553 15.2779 2.24121 15.6148C2.29405 15.7833 2.33969 15.9091 2.37207 15.9908C2.38823 16.0316 2.40188 16.0617 2.41016 16.0807C2.41415 16.0898 2.41715 16.0963 2.41895 16.1002C2.41984 16.1021 2.4206 16.1035 2.4209 16.1041L2.5332 16.3404L1.54785 17.0328C1.54398 17.045 1.54054 17.0589 1.53613 17.0728C1.50974 17.1566 1.47439 17.2696 1.43945 17.3873C1.40489 17.5038 1.37078 17.6224 1.3457 17.7213L2.13086 18.148L2.11133 18.3521L2.09473 18.5191L3.03125 18.7135L3.05664 18.6725L3.15625 18.5045L3.35059 18.5211L5.4209 18.7008L5.69629 18.7252L5.7041 19.0006L5.70605 19.0934L6.5498 19.1314L6.55371 19.0748L6.57324 18.7818L8.5 18.8092L8.47461 19.1373L8.47363 19.148L9.23926 19.1598L9.24609 19.0367L9.26172 18.735L10.5469 18.7643L10.8506 18.7721L10.8496 19.0758L10.8486 19.1295L11.6309 19.149L11.6328 19.107L11.6416 18.8033L11.9443 18.8053L13.2021 18.8111L13.5117 18.8131L13.5107 19.1227L13.5098 19.1383L14.2773 19.1266L14.2734 19.0465L14.2568 18.7271L14.5771 18.7203L15.9492 18.693L15.9277 19.024L16.708 19.0182L16.7139 18.9283L16.7295 18.6363H17.1553C17.2342 18.6365 17.3392 18.6366 17.4434 18.6373C17.5472 18.638 17.6516 18.6387 17.7285 18.6402C17.7663 18.641 17.8011 18.6419 17.8262 18.6432C17.8363 18.6437 17.8545 18.6448 17.8721 18.6471C17.8772 18.6477 17.8866 18.6488 17.8975 18.651C17.9034 18.6522 17.9324 18.6581 17.9658 18.6734C17.979 18.6795 18.0298 18.7028 18.0742 18.7555C18.0993 18.7852 18.1294 18.8334 18.1416 18.899C18.1454 18.9193 18.1457 18.9392 18.1455 18.9586L18.9268 18.9459L18.9355 18.9019L18.9805 18.651L19.2354 18.6461L20.4287 18.6256L20.71 18.6197L20.7422 18.899L20.751 18.9762L21.4668 18.9586L21.4824 18.8844L21.5322 18.6383L21.7832 18.6353L22.8438 18.6246L23.0791 18.6227L23.1777 18.9625L23.8359 18.9918L23.8379 18.9771L23.8662 18.7027L24.1426 18.6988L25.5742 18.6812L25.5547 19.0143L25.5537 19.0289L26.2021 19.0348V19.0133L26.1992 18.7174L26.4941 18.7008L27.6143 18.6353L27.9121 18.6187L27.9404 18.9156L27.9424 18.9381L28.5439 18.9557L28.5469 18.8648L28.5547 18.5777L30.1943 18.4937L30.2178 18.7936L30.2236 18.8707L30.9141 18.8062L30.9131 18.7311L30.9062 18.4352L32.7568 18.3121L32.751 18.649L32.749 18.7213L33.2754 18.6686V18.5709L33.2744 18.2955L33.5469 18.2623L34.6016 18.1314L34.9199 18.0914L34.9482 18.4117L34.9512 18.4527L35.6143 18.3756L35.6211 18.2564L35.6348 18.0025L35.8867 17.9664L37.3203 17.7652L37.3418 18.0514L37.9561 17.9449V17.9381L37.9238 17.6383L38.2217 17.5973L39.8037 17.3756L39.8564 17.5943L40.5547 17.4234L40.501 17.2477L41.4756 16.7574L41.625 16.9977L41.6406 17.024L41.6992 17.0084L41.8398 16.9654C42.1627 16.8568 42.4608 16.6831 42.7148 16.4547L43.499 15.7477L43.4492 15.6646L43.5049 15.2271L43.5283 15.0455L43.6787 14.985C43.6422 14.6667 43.5019 14.2776 43.2783 13.9068C43.0064 13.4561 42.6507 13.0924 42.3164 12.9381C41.5089 12.5655 36.6769 10.7965 35.375 10.3521C34.0571 9.90233 26.6872 6.62942 23.9717 5.39804C22.6712 4.80834 21.4133 4.74698 20.4766 4.83457C20.0088 4.87832 19.6234 4.95861 19.3564 5.02793C19.2233 5.06251 19.1198 5.0942 19.0508 5.11679C19.0164 5.12805 18.9903 5.13719 18.9736 5.14316C18.9653 5.14614 18.9587 5.14864 18.9551 5.15C18.9538 5.15048 18.9528 5.15074 18.9521 5.15097L18.9512 5.15195L18.9336 5.15879L18.9141 5.16367L10.1367 7.31797L10.126 7.3209C8.03005 7.75689 6.55028 7.0375 5.48047 6.15097C4.9516 5.71266 4.52046 5.23139 4.16895 4.84043C3.99072 4.6422 3.83646 4.47093 3.69629 4.33261C3.55412 4.19235 3.44422 4.10489 3.3584 4.05918ZM17.6406 18.7164C17.6323 18.7233 17.6244 18.7324 17.6152 18.7418C17.6233 18.7335 17.6309 18.7242 17.6406 18.7164ZM17.6836 18.6871C17.6805 18.6889 17.6753 18.6931 17.668 18.6978C17.6887 18.6845 17.712 18.6707 17.7393 18.6617C17.73 18.6648 17.7085 18.673 17.6836 18.6871Z" fill="#1D1D1B"></path>
<path d="M15.1064 6.59824C15.1074 6.59951 15.1094 6.60221 15.1123 6.60605C15.1182 6.61373 15.1277 6.62656 15.1416 6.64316C15.1699 6.67691 15.2151 6.72755 15.2764 6.78769C15.399 6.90813 15.5874 7.06746 15.8438 7.21445C16.3518 7.50567 17.1407 7.75743 18.25 7.55039C18.9118 7.42684 19.9287 7.55455 21.0703 7.79453C22.2279 8.03787 23.5669 8.4093 24.9004 8.81015C26.2343 9.21114 27.5711 9.64362 28.7217 10.0103C29.8783 10.379 30.8373 10.6778 31.4326 10.817C32.6479 11.101 33.8487 11.3009 34.7773 11.2535C35.2414 11.2298 35.6108 11.1454 35.875 11.0006C36.1278 10.862 36.2876 10.667 36.3525 10.3883L36.9561 10.5289C36.847 10.9968 36.5636 11.3293 36.1729 11.5436C35.7934 11.7516 35.319 11.8466 34.8086 11.8727C33.788 11.9247 32.5164 11.7067 31.292 11.4205C30.6675 11.2745 29.6817 10.9672 28.5332 10.6012C27.3787 10.2332 26.0493 9.80299 24.7217 9.4039C23.3935 9.00466 22.0742 8.63889 20.9424 8.40097C19.7949 8.15979 18.8907 8.06154 18.3643 8.15976C17.0977 8.39623 16.1599 8.1098 15.5352 7.75156C15.2253 7.57389 14.9954 7.38091 14.8418 7.23008C14.765 7.15467 14.7069 7.08928 14.667 7.0416C14.647 7.01778 14.6311 6.99831 14.6201 6.98398C14.6147 6.97696 14.6107 6.97083 14.6074 6.9664C14.6059 6.96428 14.6046 6.96202 14.6035 6.96054L14.6006 6.95761L15.1064 6.59824Z" fill="#1D1D1B"></path>
<path d="M36.4952 10.651C36.4958 10.6511 36.4979 10.6516 36.4991 10.652L36.5538 10.6656C36.5911 10.6754 36.6456 10.6899 36.7139 10.7086C36.8507 10.746 37.0443 10.8004 37.2725 10.8687C37.7282 11.0051 38.3273 11.1984 38.8897 11.4244C39.4417 11.6462 39.9965 11.9145 40.336 12.2096C40.5019 12.3538 40.6657 12.5467 40.7012 12.7867C40.7365 13.0257 40.6362 13.2296 40.4708 13.3883L40.3965 13.4537C40.1219 13.6727 39.7206 13.7256 39.293 13.7389C38.8507 13.7526 38.2777 13.7227 37.6016 13.7008C36.2366 13.6564 34.3511 13.6403 31.876 14.0475C29.4079 14.4535 27.6059 15.1791 26.4258 15.7984C25.8359 16.1081 25.4008 16.3912 25.1153 16.5953C24.9728 16.6972 24.8675 16.7798 24.7989 16.8355C24.7646 16.8634 24.7387 16.8852 24.7227 16.899C24.7151 16.9056 24.7096 16.9106 24.7061 16.9137C24.7045 16.9151 24.7028 16.916 24.7022 16.9166L24.2842 16.4586L24.294 16.4498C24.2996 16.4448 24.3082 16.4381 24.3184 16.4293C24.3389 16.4117 24.3685 16.3866 24.4073 16.3551C24.4854 16.2916 24.6014 16.2012 24.7549 16.0914C25.062 15.8719 25.521 15.5733 26.1378 15.2496C27.372 14.6018 29.2364 13.8538 31.7745 13.4361C34.3056 13.0197 36.2367 13.0366 37.6221 13.0816C38.3211 13.1043 38.8574 13.1326 39.2735 13.1197C39.7041 13.1064 39.9113 13.0478 40.0098 12.9693L40.0645 12.9166C40.0762 12.9029 40.0822 12.893 40.085 12.8873C40.0885 12.8802 40.0883 12.8792 40.088 12.8775C40.0853 12.8597 40.0596 12.7911 39.9288 12.6773C39.6745 12.4564 39.2065 12.2199 38.6583 11.9996C38.1204 11.7835 37.5415 11.5962 37.0948 11.4625C36.872 11.3958 36.6827 11.3425 36.5499 11.3062C36.4837 11.2882 36.4311 11.2746 36.3956 11.2652C36.3779 11.2606 36.3645 11.2568 36.3555 11.2545C36.3512 11.2534 36.348 11.2521 36.3458 11.2516H36.3428L36.4952 10.651Z" fill="#1D1D1B"></path>
<path d="M4.50281 4.27793L4.50378 4.2789C4.50466 4.28015 4.50586 4.28219 4.50769 4.28476C4.51164 4.29032 4.51823 4.29899 4.52625 4.31015C4.5423 4.33249 4.5662 4.36623 4.59753 4.40879C4.66014 4.49383 4.75171 4.6162 4.86707 4.76425C5.09863 5.06145 5.4252 5.46084 5.80261 5.86972C6.18081 6.27944 6.60597 6.69326 7.03601 7.02402C7.47108 7.35864 7.88574 7.58844 8.245 7.66172C9.86036 7.99073 12.8886 7.93325 17.5468 4.85996L17.7177 5.11777L17.8885 5.37656C13.1222 8.52134 9.92909 8.63714 8.12195 8.26914C7.62579 8.16808 7.12093 7.87215 6.65808 7.51621C6.1901 7.15627 5.73801 6.7147 5.34656 6.29062C4.95423 5.86557 4.61757 5.45158 4.37878 5.14511C4.2594 4.99189 4.16408 4.86504 4.09851 4.77597C4.06575 4.73146 4.03969 4.6966 4.02234 4.67246C4.01366 4.66039 4.00737 4.65056 4.00281 4.64414C4.00076 4.64126 3.99912 4.63899 3.99792 4.6373L3.99597 4.63437L4.50281 4.27793Z" fill="#1D1D1B"></path>
<path d="M7.90753 7.82285C7.9076 7.82298 7.91389 7.82566 8.1839 7.96445C8.44826 8.10034 8.45892 8.10573 8.45929 8.10605L8.45831 8.10703L8.45734 8.10898C8.45651 8.11057 8.4558 8.11318 8.45441 8.11582C8.45165 8.12104 8.44764 8.1282 8.44269 8.1373C8.43264 8.15577 8.41756 8.18191 8.39874 8.21445C8.36099 8.27971 8.30558 8.37136 8.2337 8.4791C8.09059 8.69363 7.87901 8.97766 7.60577 9.24961C7.06657 9.78616 6.22976 10.3298 5.18781 10.0836C4.27698 9.86831 3.63858 9.58652 3.22394 9.43418C3.0052 9.35382 2.87982 9.32111 2.80011 9.31992C2.76746 9.31945 2.75516 9.32536 2.75226 9.32676C2.74981 9.32793 2.73915 9.33338 2.72101 9.35801C2.5137 9.63948 2.25228 9.83004 2.05011 9.94883C1.94801 10.0088 1.85805 10.0527 1.7923 10.0816C1.75937 10.0961 1.73187 10.1063 1.71222 10.1139L1.68097 10.1256C1.67999 10.1259 1.67875 10.1263 1.67804 10.1266L1.67706 10.1275C1.67698 10.1276 1.67671 10.1269 1.57648 9.83359L1.47687 9.54062L1.48859 9.53574C1.50015 9.53128 1.51866 9.52367 1.5423 9.51328C1.58972 9.49244 1.65795 9.46027 1.73566 9.41465C1.89371 9.32179 2.08075 9.1816 2.22198 8.98984C2.29057 8.89685 2.37702 8.8198 2.48468 8.76816C2.59176 8.71684 2.70248 8.69925 2.8089 8.70078C3.00742 8.70365 3.22502 8.77397 3.43781 8.85215C3.88645 9.01698 4.46745 9.2761 5.33038 9.48008C6.06285 9.65318 6.68909 9.28698 7.16827 8.81015C7.40396 8.57559 7.59028 8.32691 7.71808 8.13535C7.78164 8.04007 7.83056 7.96028 7.86261 7.90488C7.87859 7.87726 7.89013 7.85545 7.89777 7.8414C7.90158 7.83439 7.90489 7.82893 7.90656 7.82578L7.90753 7.82285Z" fill="#1D1D1B"></path>
<path d="M17.7175 7.96445L17.8767 8.23105C14.1503 10.4527 10.9752 10.9205 8.72043 10.8248C7.59483 10.777 6.70148 10.5895 6.08664 10.4117C5.77926 10.3228 5.54148 10.2355 5.37863 10.1705C5.29725 10.138 5.23434 10.1109 5.19113 10.0914C5.16984 10.0818 5.15307 10.0745 5.14133 10.0689C5.13543 10.0661 5.13009 10.0638 5.12668 10.0621C5.1251 10.0613 5.1238 10.0607 5.12277 10.0602L5.1218 10.0592L5.39816 9.50449C5.39972 9.50525 5.40393 9.50747 5.40793 9.50937C5.41594 9.51319 5.42867 9.51913 5.44601 9.52695C5.48122 9.54283 5.53554 9.56634 5.60812 9.59531C5.75351 9.65334 5.9729 9.73312 6.25949 9.81601C6.83265 9.98176 7.67652 10.1602 8.7468 10.2057C10.8846 10.2964 13.9396 9.85588 17.5593 7.69785L17.7175 7.96445Z" fill="#1D1D1B"></path>
<path d="M42.6453 12.4361L42.6238 13.0553H42.6384C42.6405 13.0551 42.6446 13.0548 42.6501 13.0533C42.6539 13.0523 42.7123 13.0376 42.7498 12.9693C42.7903 12.8951 42.7583 12.8492 42.7771 12.8961C42.7959 12.9429 42.8492 13.0361 42.9802 13.19L43.0505 13.2828C43.3743 13.7548 43.2689 14.3898 42.8923 14.8756C42.507 15.3726 41.8247 15.7566 40.8875 15.8307L40.697 15.8414C39.4963 15.8809 36.6095 15.9961 33.3005 15.7535L32.6335 15.6998C31.1138 15.5676 29.3219 15.8091 27.5886 16.191C26.2918 16.4768 25.0395 16.8385 23.9753 17.1715L22.9783 17.4918C22.4097 17.6779 21.8185 17.7842 21.2214 17.8082L20.9656 17.8131C15.5519 17.8173 10.8333 17.4963 7.46851 17.1734C5.7862 17.012 4.44184 16.8496 3.51733 16.7281C3.05524 16.6674 2.69788 16.6172 2.45581 16.5816C2.33493 16.5639 2.24256 16.5492 2.18042 16.5396C2.14963 16.5349 2.12597 16.5314 2.11011 16.5289C2.10218 16.5277 2.09562 16.5266 2.09155 16.526C2.08957 16.5257 2.08771 16.5261 2.08667 16.526L2.08569 16.525L2.18335 15.9137H2.18921C2.19288 15.9143 2.19839 15.9154 2.20581 15.9166C2.22093 15.919 2.24398 15.9227 2.27417 15.9273C2.33489 15.9367 2.4261 15.9508 2.54565 15.9684C2.78477 16.0035 3.13941 16.0536 3.59839 16.1139C4.5165 16.2345 5.8537 16.3956 7.52808 16.5562C10.8777 16.8776 15.5751 17.1981 20.9646 17.1939L21.196 17.1891C21.7363 17.1673 22.2714 17.0704 22.7859 16.9019L23.7888 16.5807C24.8635 16.2443 26.1346 15.8765 27.4548 15.5855C29.2109 15.1986 31.0748 14.9423 32.6873 15.0826L33.3464 15.1353C36.6176 15.3752 39.4746 15.2609 40.6765 15.2213L40.9939 15.1969C41.6991 15.1077 42.1589 14.8093 42.4021 14.4957C42.6532 14.1718 42.6656 13.8634 42.5603 13.6686L42.5076 13.5924C42.3572 13.4157 42.2556 13.2629 42.2009 13.1266C42.1464 12.9904 42.1223 12.8243 42.2058 12.6715C42.2863 12.5244 42.4227 12.4723 42.4939 12.4537C42.5332 12.4435 42.5678 12.439 42.5925 12.4371C42.605 12.4362 42.6161 12.4363 42.6248 12.4361H42.6453Z" fill="#1D1D1B"></path>
<path d="M26.107 6.46394C25.6328 6.78412 25.176 7.15459 24.8287 7.45403C24.4384 7.79017 23.9633 7.93178 23.6298 7.81353C23.5587 7.78826 23.4877 7.76347 23.4212 7.74058C23.2719 7.68933 23.2984 7.47 23.472 7.32052L24.6313 6.32281C25.64 5.49651 26.3857 5.40091 26.7042 5.97188C26.879 6.28514 26.4477 6.23365 26.107 6.46394Z" fill="white"></path>
<path d="M28.774 7.59486C28.3287 7.87951 27.9046 8.21589 27.5835 8.48934C27.2228 8.7964 26.7624 8.90178 26.4224 8.75707C26.35 8.72631 26.2775 8.6958 26.2098 8.66767C26.0577 8.60449 26.067 8.38635 26.2274 8.24975L27.2995 7.3381C28.2355 6.5869 28.9674 6.54899 29.3281 7.14738C29.526 7.47566 29.094 7.39031 28.774 7.59486Z" fill="white"></path>
<path d="M31.4124 8.51689C31.0048 8.77627 30.6169 9.08357 30.3232 9.33318C29.9932 9.61378 29.571 9.70819 29.258 9.57325C29.1912 9.54441 29.1245 9.51604 29.0623 9.48981C28.9223 9.43093 28.9295 9.23019 29.0763 9.10551L30.0564 8.27277C30.9123 7.58689 31.5846 7.5559 31.919 8.10803C32.1026 8.4108 31.7052 8.33046 31.4124 8.51689Z" fill="white"></path>
<path d="M34.0174 9.64764C33.6667 9.85434 33.338 10.1068 33.0903 10.314C32.8123 10.5467 32.4347 10.5993 32.1379 10.4489C32.0747 10.4167 32.0115 10.385 31.9524 10.3557C31.8198 10.2899 31.8098 10.1047 31.9335 10.0012L32.7596 9.31078C33.4844 8.74601 34.0954 8.77247 34.4461 9.31078C34.6382 9.60616 34.2694 9.49912 34.0174 9.64764Z" fill="white"></path>
<path d="M23.4566 5.37692C22.9777 5.69185 22.5188 6.06018 22.1705 6.35842C21.7793 6.69337 21.2917 6.82187 20.9406 6.68432C20.8657 6.65499 20.7908 6.62615 20.721 6.59945C20.5639 6.53961 20.5823 6.31146 20.7563 6.16245L21.9187 5.16808C22.9317 4.34655 23.702 4.27765 24.0567 4.88748C24.2512 5.2222 23.8009 5.15044 23.4566 5.37692Z" fill="white"></path>
<path d="M8.98914 10.3287C8.98955 10.3293 8.99135 10.3307 8.99207 10.3316C8.99346 10.3335 8.99554 10.3363 8.99792 10.3395C9.00309 10.3463 9.01089 10.3559 9.02039 10.3687C9.03962 10.3947 9.06715 10.4328 9.10242 10.482C9.17298 10.5804 9.27344 10.7243 9.39441 10.9068C9.63619 11.2716 9.96102 11.7932 10.2938 12.4225C10.9568 13.676 11.6648 15.3804 11.7977 17.1353L11.1796 17.1822C11.0559 15.5499 10.3916 13.9333 9.74597 12.7125C9.4245 12.1047 9.11074 11.6001 8.87781 11.2486C8.76146 11.0731 8.66505 10.9362 8.59851 10.8434C8.56524 10.797 8.53969 10.7613 8.52234 10.7379C8.51386 10.7265 8.50706 10.7181 8.50281 10.7125C8.50068 10.7097 8.4989 10.7069 8.49792 10.7057L8.49695 10.7047L8.98914 10.3287ZM19.8407 8.14121L14.3905 11.2203L14.3837 11.2242L14.3768 11.2271L14.3759 11.2281C14.3742 11.229 14.3711 11.2308 14.3671 11.233C14.3589 11.2374 14.3463 11.2437 14.3309 11.2525C14.2991 11.2709 14.2553 11.298 14.2108 11.3297C14.1426 11.3783 14.0974 11.4229 14.0702 11.4547C14.0736 11.4569 14.0769 11.46 14.0809 11.4625C14.2067 11.5388 14.4949 11.6351 15.077 11.7047L15.454 11.7447C17.3467 11.9243 19.4198 11.8295 21.8583 13.0894C23.0374 13.6986 24.557 13.7001 25.9637 13.4967C27.3763 13.2924 28.5721 12.9023 29.1786 12.7662C29.6909 12.6513 30.4737 12.2499 31.1581 11.8531C31.4934 11.6587 31.7944 11.4719 32.0116 11.3336C32.1199 11.2646 32.2074 11.208 32.2675 11.1686C32.2975 11.1488 32.3212 11.133 32.3368 11.1227C32.3444 11.1176 32.3505 11.1135 32.3544 11.1109C32.3562 11.1097 32.3574 11.1086 32.3583 11.108L32.3593 11.107C32.3592 11.107 32.3599 11.1079 32.5326 11.3645L32.7059 11.6217L32.704 11.6227C32.7028 11.6234 32.7012 11.6251 32.6991 11.6266C32.6948 11.6295 32.6878 11.6338 32.6796 11.6393C32.6631 11.6502 32.639 11.6659 32.6083 11.6861C32.5461 11.727 32.4557 11.7853 32.3446 11.8561C32.1223 11.9976 31.8134 12.1893 31.4686 12.3893C30.7926 12.7812 29.9325 13.233 29.3143 13.3717C28.7903 13.4893 27.4887 13.9023 26.0526 14.11C24.6107 14.3185 22.9298 14.3405 21.5741 13.6402C19.2596 12.4443 17.377 12.5539 15.4003 12.3629L15.0038 12.3209C14.407 12.2495 14.0056 12.1419 13.7596 11.9928C13.6325 11.9156 13.5202 11.811 13.4628 11.6686C13.4024 11.5189 13.4204 11.3738 13.4677 11.2584C13.551 11.0546 13.7392 10.9044 13.8524 10.8238C13.9165 10.7782 13.9765 10.7417 14.0204 10.7164C14.0426 10.7036 14.0616 10.6933 14.0751 10.6861C14.0791 10.684 14.0827 10.6819 14.0858 10.6803L19.536 7.60215L19.8407 8.14121ZM33.7469 8.5875C34.1508 8.59224 34.4818 8.79729 34.7059 9.14121L34.7528 9.22226C34.7672 9.25095 34.7802 9.28203 34.7899 9.31406C34.8098 9.3797 34.8218 9.47013 34.7889 9.56699C34.7219 9.76408 34.5329 9.81762 34.4843 9.83164C34.4459 9.84269 34.4061 9.85091 34.3759 9.85703C34.3419 9.8639 34.3151 9.8691 34.287 9.87558C34.2592 9.882 34.2369 9.88872 34.2186 9.89511L34.1747 9.91465C33.9266 10.0609 33.6878 10.2332 33.4823 10.3951L33.2889 10.5514C32.9261 10.8551 32.4167 10.9374 31.9979 10.7252L31.8143 10.6334C31.4391 10.447 31.4773 9.97839 31.7343 9.76328L32.5604 9.07285L32.5692 9.06601L32.7167 8.95761C33.061 8.71927 33.4105 8.58362 33.7469 8.5875ZM33.7391 9.20664C33.5495 9.20459 33.283 9.29582 32.9501 9.55527L32.2362 10.151C32.2502 10.1581 32.2642 10.1653 32.2782 10.1725L32.3466 10.2008C32.5133 10.2535 32.7226 10.218 32.8915 10.0768L33.0985 9.90879C33.3198 9.73442 33.5822 9.54433 33.8602 9.38047L33.9374 9.34043C33.9683 9.32641 33.999 9.31505 34.0282 9.30527C33.9399 9.23822 33.8434 9.20784 33.7391 9.20664ZM31.1591 7.41757C31.5941 7.38398 31.9566 7.57288 32.1835 7.94687C32.2399 8.03995 32.3216 8.21033 32.244 8.39414C32.1718 8.56513 32.0084 8.62589 31.9501 8.64707C31.8892 8.66918 31.7737 8.69967 31.7323 8.7125C31.7 8.72251 31.6717 8.7331 31.6464 8.74375L31.579 8.77793C31.2856 8.96461 31.0004 9.1789 30.7548 9.37754L30.5243 9.56894C30.133 9.90175 29.5873 10.0525 29.1356 9.85801L28.9423 9.775C28.733 9.68694 28.6458 9.48914 28.6522 9.31113C28.6584 9.14108 28.7442 8.98158 28.8759 8.86972L29.8553 8.03672L29.8622 8.03086L30.0311 7.90195C30.4219 7.61802 30.8037 7.44511 31.1591 7.41757ZM31.2069 8.03476C30.9808 8.05227 30.6591 8.18644 30.2557 8.5084L30.2567 8.50937L29.3524 9.27695C29.3618 9.28098 29.3713 9.28461 29.3807 9.28867L29.452 9.31113C29.6296 9.35083 29.8873 9.29666 30.1219 9.09726L30.3651 8.89609C30.6237 8.68696 30.9279 8.45785 31.246 8.25547L31.326 8.20957C31.3998 8.17163 31.4717 8.14514 31.5331 8.12558C31.4449 8.0535 31.3387 8.02458 31.2069 8.03476ZM28.5038 6.42734C28.9671 6.38897 29.3529 6.58782 29.5936 6.98691L29.6395 7.07578C29.684 7.1759 29.715 7.30882 29.6552 7.44882C29.5814 7.62146 29.4161 7.68518 29.3524 7.70859C29.2866 7.73276 29.1645 7.76565 29.1161 7.78086C29.0803 7.79209 29.0484 7.80372 29.0194 7.81601L28.9413 7.85605C28.6195 8.06174 28.3071 8.29721 28.038 8.51523L27.7841 8.72519C27.3632 9.08337 26.78 9.24662 26.3007 9.04258L26.0907 8.95371C25.8734 8.86332 25.7841 8.6578 25.7919 8.47324C25.7993 8.29718 25.8891 8.13122 26.0262 8.01425L27.0985 7.10215L27.1053 7.09629L27.288 6.95664C27.7126 6.64715 28.124 6.45883 28.5038 6.42734ZM28.5555 7.0455C28.2994 7.06672 27.94 7.22098 27.493 7.57968L26.4774 8.44297L26.5438 8.47129L26.6249 8.49765C26.828 8.54223 27.1196 8.47747 27.3827 8.25351L27.6473 8.03379C27.9295 7.80521 28.2611 7.55485 28.6073 7.33359L28.6923 7.28476C28.7775 7.24067 28.8607 7.21099 28.9305 7.18906C28.9413 7.18567 28.9522 7.18248 28.9628 7.17929C28.8566 7.0742 28.7247 7.03158 28.5555 7.0455ZM25.8778 5.31699C26.0992 5.28192 26.3174 5.29811 26.5145 5.38633C26.7137 5.47553 26.8668 5.62791 26.9745 5.8209L27.0194 5.91562C27.059 6.02022 27.0769 6.15151 27.0106 6.28574C26.9352 6.43812 26.7881 6.50484 26.7206 6.53379C26.6527 6.56283 26.5339 6.6026 26.4784 6.62363C26.4404 6.63804 26.4049 6.65265 26.3719 6.66855L26.2802 6.72031C25.9348 6.95349 25.5972 7.21568 25.3055 7.45664L25.0311 7.68906C24.5983 8.06186 24.0077 8.27667 23.5262 8.10605L23.3202 8.03379C23.211 7.9962 23.1211 7.92066 23.0673 7.81797C23.0161 7.72027 23.0069 7.61709 23.0175 7.52988C23.0382 7.35864 23.1365 7.20004 23.2694 7.08554L24.4296 6.0875L24.4344 6.08261L24.6288 5.93027C25.077 5.59201 25.4994 5.37699 25.8778 5.31699ZM25.9755 5.92929C25.7044 5.97223 25.3184 6.1605 24.8329 6.55722L24.8339 6.5582L23.7186 7.51523C23.7236 7.51699 23.7283 7.51933 23.7333 7.52109L23.8104 7.53965C24.0082 7.5666 24.3216 7.48121 24.6259 7.21933L24.911 6.9791C25.1128 6.81239 25.3374 6.63467 25.5731 6.46152L25.9335 6.20664C26.0471 6.12985 26.1634 6.08063 26.2587 6.04453C26.2901 6.0326 26.3215 6.02122 26.3495 6.01133C26.3213 5.98482 26.2916 5.96622 26.2616 5.95273C26.1979 5.92419 26.1062 5.90865 25.9755 5.92929ZM23.1971 4.1832C23.4263 4.15566 23.6492 4.18254 23.8495 4.2789C24.0507 4.37587 24.2097 4.53377 24.3251 4.73203L24.371 4.82578C24.414 4.93027 24.4387 5.06396 24.3749 5.20273C24.2992 5.36681 24.1415 5.43336 24.0731 5.46054C24.0036 5.48817 23.8796 5.5253 23.8241 5.54453C23.7469 5.5713 23.6817 5.59926 23.6268 5.63535C23.279 5.86408 22.9397 6.12369 22.6473 6.36289L22.3719 6.59336C21.9573 6.94838 21.3984 7.14171 20.9218 7.00449L20.828 6.97324L20.6102 6.88925C20.375 6.79948 20.2904 6.57707 20.3055 6.38925C20.3199 6.21177 20.4162 6.04594 20.5546 5.92734L21.7177 4.93222L21.7235 4.92734L21.9188 4.775C22.3724 4.43852 22.805 4.23044 23.1971 4.1832ZM23.2714 4.79843C22.9926 4.83197 22.602 5.01314 22.1141 5.40879L20.9891 6.3707C21.0105 6.37901 21.0321 6.38766 21.0536 6.39609L21.1385 6.41953C21.3522 6.45772 21.6711 6.37737 21.9686 6.12265L22.2548 5.88437C22.5592 5.6353 22.9155 5.36138 23.286 5.11777L23.3739 5.06504C23.4618 5.0174 23.5486 4.985 23.6219 4.95957C23.6506 4.94964 23.6788 4.93963 23.705 4.93125C23.6652 4.88917 23.6241 4.85829 23.5809 4.8375C23.5055 4.80118 23.4054 4.78232 23.2714 4.79843Z" fill="#1D1D1B"></path>
</svg>
