<svg xmlns="http://www.w3.org/2000/svg" fill="none" viewBox="0 0 45 21" height="21" width="45">
<path fill="white" d="M4 7L5 5L5.5 3.5H6.5L8.5 6L10.5 7L15.5 5L16 1.5H16.5L25 5L27 5.5L29 6L31 7L32.5 8L42.5 11L43.5 12L43 14L42.5 15.5L38.5 18L29.5 20H16H8.5L5 19.5L3 19L1.5 18L3.5 15.5L3 14.5L4 7Z"></path>
<path fill="#1D1D1B" d="M9.89106 13.9583C9.89559 13.9591 9.90139 13.9602 9.90839 13.9616C9.92591 13.965 9.95099 13.97 9.9828 13.9767C10.0464 13.9903 10.1371 14.0108 10.248 14.0394C10.4695 14.0964 10.7742 14.186 11.1072 14.3168C11.7615 14.5737 12.5764 15.0088 13.0518 15.7129L13.1553 15.8663L13.0677 16.0292L12.7982 15.8841L12.9539 15.9681C13.0672 16.0292 13.0673 16.0298 13.0671 16.0302C13.067 16.0304 13.0667 16.0309 13.0665 16.0313C13.0661 16.032 13.0657 16.0328 13.0653 16.0335C13.0645 16.0349 13.0636 16.0364 13.0628 16.0379C13.061 16.0409 13.0592 16.044 13.0572 16.0471C13.0534 16.0533 13.0491 16.0598 13.0443 16.0664C13.0348 16.0798 13.0235 16.0938 13.0103 16.1082C12.9838 16.1372 12.9497 16.1674 12.9063 16.1977C12.8199 16.2579 12.6954 16.3192 12.5137 16.373C12.153 16.4799 11.5378 16.5659 10.4739 16.5341L10.4719 16.534L5.41689 16.3144L5.40092 16.312L5.44631 16.0094L5.4008 16.312C5.40078 16.3119 5.40073 16.3119 5.40069 16.3119L5.39949 16.3117C5.39879 16.3116 5.39786 16.3115 5.39671 16.3113C5.3944 16.311 5.39117 16.3104 5.38708 16.3098C5.3789 16.3085 5.36721 16.3066 5.35228 16.304C5.32241 16.2989 5.27949 16.2913 5.22549 16.2808C5.11757 16.2598 4.96496 16.2273 4.78345 16.181C4.42193 16.0888 3.93871 15.94 3.46382 15.7139L3.72685 15.1614C4.1539 15.3646 4.5962 15.5017 4.93468 15.588C5.10317 15.631 5.24419 15.6609 5.3424 15.6801C5.39146 15.6896 5.42973 15.6964 5.45528 15.7008C5.46414 15.7023 5.47147 15.7035 5.47718 15.7044L10.4948 15.9225C11.5134 15.9527 12.0545 15.869 12.3301 15.7891C11.9469 15.3827 11.3979 15.0883 10.8836 14.8864C10.5792 14.7669 10.2992 14.6845 10.0954 14.632C9.99379 14.6058 9.91165 14.5873 9.85562 14.5754C9.82761 14.5694 9.80616 14.5651 9.79211 14.5624C9.78508 14.5611 9.77991 14.5601 9.77668 14.5595C9.77508 14.5592 9.77395 14.559 9.77333 14.5589C9.77318 14.5589 9.77305 14.5588 9.77296 14.5588L9.76243 14.5569L3.43911 12.979L3.58728 12.3852L9.89106 13.9583Z"></path>
<path fill="#1D1D1B" d="M18.4056 2.54862C19.3654 2.31572 20.3952 2.46946 21.6433 3.24975L21.7029 3.28738L21.7029 3.28741L21.757 3.32165C22.2996 3.66194 22.8785 3.93846 23.484 4.14082L23.5446 4.16082L23.5447 4.16084L23.5741 4.17049C23.8784 4.27161 24.2087 4.41345 24.5655 4.57102C24.9378 4.7354 25.3438 4.91913 25.8045 5.10617C26.7078 5.47293 27.8139 5.84925 29.213 6.08458L29.2798 6.09568L29.2867 6.09681L29.2936 6.09826L29.2304 6.39765C29.2915 6.10834 29.2936 6.09862 29.2937 6.0983C29.2938 6.09831 29.2939 6.09831 29.2939 6.09833L29.296 6.09879C29.2973 6.09906 29.2991 6.09945 29.3013 6.09994C29.3057 6.1009 29.312 6.10229 29.3199 6.1041C29.3359 6.10771 29.3588 6.11302 29.388 6.12014C29.4464 6.13437 29.5301 6.15581 29.6339 6.18519C29.8414 6.2439 30.1305 6.33465 30.4596 6.4635C31.1134 6.71945 31.9458 7.13368 32.6059 7.76222C32.7895 7.93696 32.8692 8.30057 32.5783 8.51695L32.5706 8.52265L30.4655 9.89379C30.2021 10.0812 29.8365 10.0235 29.6438 9.76268L29.6437 9.76264C29.4853 9.54818 29.238 9.23505 28.9847 8.99567L28.9846 8.99561C28.803 8.82396 28.5049 8.71772 28.0605 8.66769C27.6205 8.61816 27.0932 8.62871 26.4948 8.6439C25.3215 8.67369 23.9001 8.72265 22.6274 8.2728C21.3767 7.83076 20.5296 7.24629 19.8395 6.77229C19.1361 6.28918 18.645 5.96205 18.0506 5.90798C17.3686 5.84594 16.5391 5.76854 15.9306 5.62751C15.6353 5.55906 15.3436 5.46566 15.1505 5.3212C15.1136 5.29364 15.0761 5.26101 15.0415 5.22287C14.7368 5.43284 14.408 5.65355 14.0493 5.88047L13.9449 5.94621C12.1393 7.07602 10.8299 7.38042 9.78155 7.05582C8.74378 6.73447 8.06663 5.82393 7.45275 4.82503C6.8534 3.84977 6.40954 3.58813 6.17771 3.52666C6.06524 3.49684 5.99058 3.51029 5.95128 3.5226C5.93032 3.52916 5.91657 3.53636 5.9105 3.53988C5.91023 3.54004 5.90996 3.54017 5.90972 3.54032L5.81003 3.62366L5.75119 3.61383C5.72014 3.63812 5.66535 3.68876 5.5882 3.7884C5.36692 4.07419 5.00442 4.70647 4.5076 6.07288C4.02347 7.40437 3.86862 8.9411 3.8377 10.1578C3.8223 10.7637 3.83773 11.2849 3.85696 11.654C3.86657 11.8385 3.87712 11.9848 3.88521 12.0844C3.88926 12.1342 3.89268 12.1724 3.89507 12.1978C3.89627 12.2105 3.89719 12.22 3.89781 12.2262C3.89812 12.2293 3.89835 12.2316 3.8985 12.233C3.89857 12.2337 3.89863 12.2342 3.89866 12.2345C3.89867 12.2346 3.89868 12.2347 3.89868 12.2347L3.90358 12.2809L3.71668 13.2242L2.89761 14.5277L4.05949 15.4046L1.77441 17.6896C2.1312 18.1972 2.57687 18.4745 2.94988 18.6274C3.15999 18.7135 3.3463 18.7597 3.47848 18.7842C3.54441 18.7964 3.59639 18.8031 3.63051 18.8067C3.64755 18.8085 3.6601 18.8095 3.66763 18.8101C3.67121 18.8103 3.67366 18.8105 3.67492 18.8105L3.86655 18.8184L4.00117 19.129L6.09106 19.1908L6.26883 19.4873L8.41781 19.3503L8.58158 19.6982L10.6919 19.4953L10.9201 19.7548L12.9698 19.5386L13.26 19.7888L15.3725 19.377L15.5342 19.6894L17.6618 19.3796L17.8499 19.6725L19.9482 19.3756L20.0873 19.6858L22.1783 19.4664L22.3464 19.8658L24.5843 19.6623L24.6342 19.9513L26.7282 19.6607L26.8743 19.9236L28.9072 19.4483L29.163 19.6937L31.5206 19.057L31.5697 19.341L33.7775 18.6155L33.8404 18.9088L36.2515 18.1259L36.307 18.3939L39.4369 17.0303L39.2847 17.3339L40.9243 16.339C41.6139 15.9205 42.2344 15.3989 42.7525 14.7857L42.7761 14.7576C42.7764 14.7572 42.7768 14.7568 42.7771 14.7564C42.7729 14.7576 42.7677 14.7592 42.7617 14.7609C42.7419 14.7667 42.7125 14.7752 42.674 14.7863C42.5969 14.8085 42.4835 14.841 42.3374 14.8821C42.0452 14.9643 41.6222 15.0813 41.0982 15.2204C40.0504 15.4986 38.5977 15.8657 36.9786 16.221C33.7525 16.9291 29.8233 17.6007 27.1254 17.4095C24.4738 17.2216 20.8843 16.9164 17.959 16.6583C16.4961 16.5292 15.1988 16.4118 14.2672 16.3267C13.8014 16.2842 13.427 16.2497 13.1691 16.2258C13.0401 16.2139 12.9403 16.2047 12.8726 16.1984C12.8388 16.1952 12.813 16.1928 12.7957 16.1912C12.7871 16.1904 12.7805 16.1898 12.7762 16.1894C12.774 16.1892 12.7723 16.1891 12.7712 16.189C12.7707 16.1889 12.7702 16.1889 12.77 16.1888C12.7698 16.1888 12.7697 16.1888 12.7696 16.1888C12.7696 16.1888 12.7698 16.1862 12.798 15.8841C12.8264 15.5795 12.8264 15.5795 12.8265 15.5795C12.8266 15.5795 12.8267 15.5795 12.8268 15.5795C12.8271 15.5795 12.8275 15.5796 12.8281 15.5796C12.8291 15.5797 12.8308 15.5799 12.8329 15.5801C12.8373 15.5805 12.8438 15.5811 12.8525 15.5819C12.8697 15.5835 12.8955 15.5859 12.9292 15.5891C12.9968 15.5953 13.0965 15.6046 13.2254 15.6165C13.4832 15.6403 13.8573 15.6748 14.3229 15.7173C15.254 15.8023 16.5507 15.9196 18.0128 16.0487C20.9377 16.3068 24.5227 16.6116 27.1687 16.7991C29.7683 16.9833 33.6185 16.332 36.8474 15.6233C38.4557 15.2703 39.8994 14.9055 40.9411 14.6289C41.4619 14.4907 41.8819 14.3745 42.1716 14.293C42.3164 14.2523 42.4286 14.2202 42.5044 14.1983C42.5251 14.1923 42.543 14.1871 42.5582 14.1827C42.5628 14.1784 42.5678 14.1737 42.5732 14.1684C42.6089 14.1332 42.6583 14.0778 42.7066 14.0023C42.8016 13.8538 42.8952 13.6238 42.8685 13.3002C42.8173 12.6831 42.9056 12.3025 43.0701 12.0694C43.1548 11.9495 43.2541 11.8772 43.3462 11.8369C43.391 11.8173 43.4316 11.8063 43.4648 11.8002C43.4814 11.7972 43.4962 11.7953 43.5087 11.7943C43.515 11.7937 43.5208 11.7934 43.526 11.7932C43.5286 11.7931 43.5311 11.793 43.5334 11.7929C43.5345 11.7929 43.5357 11.7929 43.5367 11.7929C43.5373 11.7929 43.5378 11.7929 43.5383 11.7929C43.5386 11.7929 43.539 11.7929 43.5391 11.7929C43.5395 11.7929 43.5399 11.7929 43.5399 12.0694V11.7929H43.7905L43.8399 12.0386L43.5399 12.0989C43.8305 12.0405 43.8396 12.0387 43.8399 12.0387C43.8399 12.0387 43.8399 12.0387 43.8399 12.0388C43.8399 12.0389 43.8399 12.039 43.84 12.0391C43.84 12.0394 43.8401 12.0397 43.8402 12.0401C43.8404 12.041 43.8406 12.0422 43.8409 12.0438C43.8415 12.0469 43.8424 12.0513 43.8435 12.057C43.8457 12.0685 43.8489 12.0851 43.8528 12.1061C43.8606 12.1483 43.8715 12.2086 43.8838 12.2824C43.9083 12.4297 43.9388 12.6323 43.9623 12.8518C43.9858 13.0702 44.0031 13.3114 43.9995 13.5345C43.9962 13.7478 43.9738 13.983 43.8941 14.1659C43.749 14.4993 43.5016 14.8441 43.2449 15.151L43.22 15.1806C42.6568 15.8473 41.9847 16.4113 41.2418 16.8622L41.2418 16.8622L37.7842 18.9601L38.1323 18.2662L35.8605 19.2559L35.7907 18.9189L33.3842 19.7004L33.3218 19.4094L31.0873 20.1437L31.0319 19.8229L28.9888 20.3747L28.7231 20.1198L26.5639 20.6246L26.3971 20.3245L24.1319 20.6388L24.0773 20.3229L21.9561 20.5158L21.7905 20.1224L19.7102 20.3407L19.5781 20.046L17.547 20.3334L17.3599 20.042L15.191 20.3579L15.0396 20.0654L13.0854 20.4463L12.7707 20.175L10.6697 20.3966L10.4391 20.1344L8.2114 20.3486L8.04139 19.9875L5.93574 20.1217L5.73836 19.7926L3.59435 19.7292L3.45177 19.4003C3.4257 19.3962 3.39738 19.3915 3.36704 19.3859C3.20155 19.3553 2.97368 19.2985 2.71781 19.1937C2.20458 18.9833 1.57566 18.5775 1.12001 17.8027L1 17.5986L3.1293 15.4693L2.08056 14.6778L3.13836 12.9943L3.28547 12.2517C3.28287 12.2239 3.27933 12.1844 3.27524 12.134C3.26671 12.029 3.25576 11.8768 3.24582 11.6859C3.22594 11.3042 3.21006 10.7669 3.22594 10.1423C3.25756 8.898 3.41553 7.28543 3.93245 5.86376C4.43666 4.47702 4.825 3.77448 5.1043 3.41376C5.24468 3.23245 5.36792 3.12378 5.47787 3.06196C5.5232 3.03647 5.5671 3.0185 5.6093 3.00721C5.64907 2.98463 5.7023 2.95928 5.76845 2.93857C5.91033 2.89416 6.1029 2.87371 6.33454 2.93513C6.79095 3.05614 7.34297 3.47757 7.97414 4.50461C8.59079 5.50803 9.16501 6.22429 9.96256 6.47125C10.7373 6.71114 11.8249 6.53488 13.5382 5.4784L13.6202 5.42742C14.1682 5.08452 14.6474 4.75415 15.0823 4.44878L15.0824 4.44871L15.4248 4.20784C15.5363 4.12943 15.6451 4.05313 15.7509 3.97967L15.7509 3.97964L15.9132 3.86697C16.7236 3.30451 17.5199 2.76354 18.4056 2.54862ZM3.6751 18.8106L3.67588 18.8106L3.67515 18.8106H3.6751ZM42.7057 14.4585C42.7641 14.6568 42.783 14.7212 42.7891 14.742C42.7891 14.742 42.7891 14.742 42.7892 14.7419L42.7057 14.4585L42.8529 14.664C42.853 14.6639 42.853 14.6639 42.853 14.6639C42.8284 14.6297 42.7844 14.5684 42.7057 14.4585ZM21.3738 3.80339C20.2084 3.06028 19.3305 2.95391 18.5499 3.14333C17.7389 3.34011 16.9957 3.8607 16.0999 4.48236L16.0999 4.48239C15.928 4.60169 15.7501 4.7272 15.5615 4.85988C15.657 4.91452 15.8242 4.97466 16.0688 5.03135C16.628 5.16094 17.4116 5.23536 18.1061 5.29854C18.8882 5.36969 19.5129 5.80553 20.186 6.26785C20.8724 6.73929 21.6626 7.28274 22.8313 7.69581C23.9779 8.10107 25.2796 8.06258 26.4793 8.03211C27.0675 8.01718 27.6391 8.00441 28.129 8.05956C28.6144 8.11421 29.0769 8.24065 29.405 8.55092C29.6921 8.82217 29.9596 9.16123 30.1255 9.38489L30.1258 9.38468L32.0812 8.11105C31.5185 7.61092 30.8194 7.26155 30.2366 7.03336C29.9294 6.9131 29.6596 6.82847 29.4673 6.77406C29.3713 6.74689 29.2948 6.72733 29.2431 6.71471C29.2172 6.7084 29.1975 6.70382 29.1846 6.7009C29.1797 6.69979 29.1758 6.69891 29.173 6.69828C27.6891 6.45437 26.5198 6.05706 25.5743 5.67318C25.1026 5.48166 24.6847 5.29267 24.3183 5.13086C23.948 4.96733 23.6345 4.83359 23.3555 4.74281L23.29 4.72123C22.6149 4.49562 21.9726 4.18523 21.3738 3.80339ZM5.91561 3.53542C5.9157 3.53534 5.91581 3.53527 5.91591 3.53519C5.91623 3.53493 5.91656 3.53464 5.91689 3.53436C5.91706 3.53422 5.91732 3.534 5.9174 3.53393L5.91561 3.53542Z"></path>
<path fill="#1D1D1B" d="M11.2937 9.65706C11.2949 9.65738 11.2963 9.65773 11.2977 9.6581C11.305 9.65996 11.315 9.66258 11.3275 9.66603C11.3525 9.67293 11.3878 9.68318 11.4322 9.69731C11.5208 9.72557 11.6458 9.76946 11.7976 9.83357C12.101 9.9617 12.5131 10.1712 12.9564 10.4991C13.8457 11.1569 14.8528 12.2861 15.3598 14.1664L15.8882 16.0574L15.2988 16.2221L14.77 14.3297L14.7696 14.3283C14.3031 12.5955 13.385 11.5773 12.5924 10.9911C12.1945 10.6967 11.8262 10.5099 11.5596 10.3973C11.4263 10.3411 11.3189 10.3035 11.2463 10.2804C11.2101 10.2688 11.1826 10.2609 11.165 10.256C11.1562 10.2536 11.1499 10.252 11.1462 10.251C11.1448 10.2507 11.1438 10.2504 11.1432 10.2502L11.135 10.2483L4.27365 8.22198L4.44696 7.63506L11.2937 9.65706Z"></path>
<path fill="#1D1D1B" d="M10.6539 6.96898C10.4537 7.50177 10.1608 7.86964 9.82141 8.11153C9.48404 8.35196 9.11843 8.45538 8.78945 8.489C8.4617 8.52249 8.16367 8.48755 7.94982 8.44558C7.84218 8.42445 7.7539 8.40118 7.69142 8.38276C7.66013 8.37354 7.63516 8.3655 7.61731 8.3595C7.60839 8.3565 7.60123 8.354 7.59594 8.35212C7.59492 8.35176 7.59398 8.3514 7.59311 8.35109L4.96524 7.48744L4.96515 7.4874C4.92267 7.47343 4.87665 7.49506 4.86032 7.53663L4.86034 7.53666L4.58306 8.24443L4.58302 8.24459C4.42575 8.64541 4.0169 8.85605 3.61343 8.80342L3.60316 8.80209L3.593 8.80004C3.62115 8.80567 3.65075 8.8073 3.6808 8.80429C3.69563 8.80281 3.71002 8.80026 3.72388 8.7968C3.73079 8.79508 3.73752 8.79313 3.74406 8.79101C3.74733 8.78995 3.75055 8.78882 3.75371 8.78768C3.7553 8.7871 3.75687 8.78652 3.75843 8.78593C3.75921 8.78563 3.76 8.78533 3.76077 8.78503C3.76115 8.78488 3.76154 8.78472 3.76192 8.78457C3.76211 8.7845 3.76231 8.78444 3.7625 8.78437C3.76258 8.78433 3.76271 8.78427 3.76277 8.78425C3.76291 8.78419 3.76307 8.78413 3.64947 8.50001C3.53588 8.21589 3.53603 8.21583 3.53618 8.21577C3.53623 8.21575 3.53636 8.21569 3.53645 8.21565C3.53665 8.21558 3.53684 8.2155 3.53703 8.21542C3.53741 8.21527 3.5378 8.21514 3.53818 8.21499C3.53895 8.21469 3.53974 8.21437 3.54052 8.21407C3.54208 8.21347 3.54367 8.2129 3.54526 8.21232C3.54844 8.21117 3.55168 8.21004 3.55498 8.20897C3.5616 8.20682 3.56845 8.20485 3.57551 8.20308C3.58966 8.19954 3.6045 8.1969 3.61991 8.19536C3.64421 8.19293 3.66858 8.19341 3.69257 8.1966L3.70646 8.19814C3.84449 8.2107 3.96093 8.13969 4.00876 8.03195L4.01332 8.02106L4.29052 7.31344L4.29055 7.3134L4.29705 7.2974C4.4372 6.964 4.81076 6.79245 5.15628 6.90604L7.78826 7.77104L7.79403 7.77295L7.79927 7.7749C7.79959 7.77502 7.80008 7.7752 7.80074 7.77543C7.80287 7.77619 7.80675 7.77755 7.81228 7.77941C7.82335 7.78313 7.84099 7.78884 7.86443 7.79575C7.91143 7.8096 7.98118 7.8281 8.06767 7.84508C8.24211 7.87931 8.47689 7.90579 8.72725 7.8802C8.97636 7.85474 9.23417 7.77858 9.46626 7.61318C9.69631 7.44922 9.91898 7.18499 10.0811 6.75369L10.6539 6.96898Z"></path>
<path fill="#010101" d="M16.1247 1.00028C16.2261 0.998338 16.3458 1.00659 16.4667 1.02196C16.6967 1.05118 16.9818 1.11283 17.1842 1.2135L20.7123 2.76489L20.4659 3.32508L16.9234 1.76736L16.9156 1.76334C16.8072 1.70802 16.5999 1.65577 16.3896 1.62903C16.2911 1.61651 16.2043 1.61123 16.1413 1.61209C16.1266 1.64457 16.1058 1.69717 16.0795 1.77986C16.0087 2.00284 15.9114 2.3971 15.7695 3.10662V3.10667C15.6297 3.80529 15.694 4.06386 15.7287 4.1353C15.7406 4.15992 15.7403 4.14509 15.7104 4.1313C15.6983 4.1257 15.6848 4.12201 15.6703 4.12015C15.6631 4.11923 15.6556 4.11874 15.6476 4.11868C15.6437 4.11865 15.6395 4.11874 15.6353 4.11893C15.6331 4.11903 15.6309 4.11917 15.6287 4.11932C15.6275 4.1194 15.6264 4.11948 15.6253 4.11958C15.6247 4.11963 15.6241 4.11969 15.6235 4.11974C15.6232 4.11976 15.6228 4.11979 15.6226 4.11981C15.6223 4.11985 15.6221 4.12097 15.634 4.24839L15.6674 4.60062C15.6794 4.72914 15.6791 4.72917 15.6787 4.7292C15.6786 4.72922 15.6782 4.72927 15.6779 4.7293C15.6772 4.72935 15.6766 4.72941 15.676 4.72946C15.6747 4.72956 15.6734 4.72966 15.6721 4.72976C15.6694 4.72995 15.6665 4.73012 15.6635 4.73026C15.6575 4.73054 15.6507 4.73068 15.6434 4.73063C15.6288 4.73053 15.6115 4.7296 15.5922 4.72711C15.5534 4.72212 15.5057 4.71077 15.4543 4.68709C15.3459 4.63716 15.247 4.54451 15.1781 4.40244C15.051 4.14047 15.0247 3.71009 15.1694 2.98659C15.3119 2.27402 15.4146 1.85178 15.4962 1.5946C15.5752 1.34602 15.6496 1.19791 15.7713 1.09921L15.7784 1.09358C15.8526 1.03659 15.936 1.02005 15.9715 1.01373C16.0214 1.0048 16.0746 1.00124 16.1247 1.00028ZM16.079 1.61616C16.0719 1.61743 16.073 1.61787 16.0797 1.61607C16.0795 1.6161 16.0792 1.61612 16.079 1.61616Z"></path>
<path fill="#1D1D1B" d="M18.0983 5.87104C18.0987 5.87073 18.1069 5.86226 18.3102 5.65034C18.522 5.42955 18.5221 5.42959 18.5221 5.42963C18.5222 5.42965 18.5222 5.42969 18.5222 5.42972C18.5223 5.4298 18.5224 5.42989 18.5225 5.43C18.5227 5.43021 18.523 5.4305 18.5234 5.43085C18.5241 5.43154 18.5251 5.43248 18.5263 5.43367C18.5288 5.43606 18.5323 5.43945 18.5367 5.44376C18.5455 5.4524 18.558 5.46482 18.5738 5.48061C18.6052 5.51217 18.6494 5.55735 18.7015 5.61292C18.8053 5.7235 18.9429 5.8778 19.0747 6.04944C19.2046 6.21859 19.3384 6.41683 19.4252 6.61445C19.5053 6.79668 19.5814 7.05877 19.4694 7.30207L19.4694 7.30213C19.4415 7.36272 19.3987 7.42236 19.3609 7.47108C19.3195 7.5243 19.2685 7.58379 19.2114 7.6472C19.0968 7.77424 18.9474 7.92766 18.7776 8.09567C18.4376 8.43224 18.0051 8.8379 17.5811 9.22781C17.1567 9.61815 16.7388 9.99462 16.4272 10.2734C16.2714 10.4128 16.142 10.5279 16.0515 10.6081C16.0063 10.6482 15.9708 10.6796 15.9466 10.7011C15.9345 10.7118 15.9252 10.72 15.9189 10.7255C15.9157 10.7283 15.9134 10.7304 15.9118 10.7318C15.911 10.7325 15.9104 10.7331 15.9099 10.7334C15.9097 10.7336 15.9096 10.7337 15.9095 10.7338C15.9094 10.7339 15.9094 10.7339 15.9093 10.7339L15.707 10.5045L15.9093 10.734L15.9084 10.7347L15.9077 10.7354C15.9077 10.7353 15.9078 10.7353 15.9079 10.7352C15.908 10.7351 15.9081 10.7351 15.9082 10.735C15.9084 10.7348 15.9085 10.7347 15.9086 10.7346L15.9069 10.7362C15.9046 10.7383 15.9004 10.7422 15.8945 10.7479C15.8828 10.7593 15.8649 10.7775 15.8434 10.8017C15.8 10.8507 15.7449 10.921 15.6968 11.0064C15.6004 11.178 15.5456 11.3834 15.6294 11.6066C15.7417 11.9063 15.8235 12.0016 15.9221 12.0488C16.0442 12.1073 16.2697 12.1308 16.7726 12.0578C16.9801 12.0277 17.2074 11.9328 17.5474 11.8007C17.8734 11.6741 18.2683 11.5295 18.7559 11.4431C19.7251 11.2716 21.0156 11.3374 22.8755 12.1245L22.9644 12.1625L22.9771 12.168L22.9889 12.1743L22.9892 12.1745C22.9897 12.1748 22.9906 12.1753 22.9919 12.176C22.9946 12.1774 22.9989 12.1797 23.0049 12.1827C23.0168 12.1889 23.0352 12.1982 23.0591 12.2098C23.107 12.233 23.1768 12.2652 23.2619 12.3001C23.4341 12.3705 23.6595 12.4477 23.8886 12.4855C24.1222 12.5242 24.3266 12.5162 24.4786 12.4517C24.6121 12.3951 24.7377 12.2821 24.805 12.0218C24.9676 11.3924 25.1776 10.4606 25.3476 9.68267C25.4325 9.29445 25.5071 8.9458 25.5604 8.69424C25.5871 8.56847 25.6085 8.46699 25.6232 8.39699C25.6306 8.36199 25.6363 8.33485 25.6401 8.31649C25.642 8.30732 25.6435 8.30033 25.6445 8.29565C25.6449 8.2933 25.6453 8.29153 25.6456 8.29036C25.6457 8.28978 25.6458 8.28934 25.6458 8.28905C25.6459 8.28891 25.6459 8.2888 25.6459 8.28873C25.6459 8.28869 25.6459 8.28865 25.6459 8.28863C25.6462 8.28867 25.6546 8.29043 25.9455 8.35102C26.245 8.41341 26.245 8.41342 26.245 8.41345C26.245 8.41347 26.245 8.41351 26.245 8.41354L26.2447 8.41526C26.2444 8.41648 26.244 8.41828 26.2435 8.42066C26.2425 8.42543 26.2411 8.4325 26.2391 8.44177C26.2352 8.4603 26.2295 8.4876 26.2221 8.52279C26.2074 8.59316 26.1859 8.69507 26.1591 8.82131C26.1055 9.07374 26.0306 9.42359 25.9455 9.8133C25.7755 10.5912 25.5633 11.5331 25.3975 12.175L25.3974 12.175C25.2867 12.6034 25.041 12.8779 24.7177 13.0151C24.413 13.1444 24.0751 13.1366 23.7888 13.0893C23.4979 13.0413 23.2256 12.9465 23.0301 12.8664C22.9313 12.826 22.8497 12.7883 22.7922 12.7605C22.7635 12.7465 22.7406 12.735 22.7245 12.7267C22.7195 12.7241 22.7152 12.7218 22.7115 12.7199C20.8983 11.9396 19.7068 11.8963 18.8626 12.0458C18.4351 12.1214 18.0849 12.2484 17.769 12.3711C17.4671 12.4884 17.1556 12.6206 16.8605 12.6634C16.358 12.7363 15.9631 12.7469 15.6579 12.6008C15.3292 12.4434 15.1767 12.1425 15.0563 11.8215C14.8873 11.3706 15.0146 10.9712 15.1634 10.7065C15.238 10.5738 15.3213 10.4681 15.3856 10.3956C15.4181 10.359 15.4464 10.3301 15.4674 10.3096C15.4779 10.2994 15.4867 10.2912 15.4933 10.2851C15.4966 10.2821 15.4994 10.2796 15.5016 10.2776C15.5027 10.2766 15.5036 10.2758 15.5044 10.2751L15.5055 10.2741C15.5059 10.2738 15.5064 10.2734 15.5069 10.2729C15.5085 10.2715 15.5108 10.2695 15.5139 10.2667C15.5201 10.2613 15.5292 10.2532 15.5412 10.2426C15.5652 10.2214 15.6004 10.1902 15.6454 10.1503C15.7353 10.0705 15.8641 9.95603 16.0192 9.81725C16.3296 9.53962 16.7452 9.16517 17.1669 8.77738C17.589 8.38915 18.0151 7.98942 18.3471 7.66073C18.5135 7.49612 18.6536 7.35193 18.7569 7.23731C18.8087 7.1799 18.8489 7.13256 18.8777 7.09554C18.9 7.06684 18.9099 7.05126 18.913 7.04642C18.9136 7.04008 18.9211 6.98844 18.865 6.86065C18.8069 6.72844 18.7068 6.57516 18.5893 6.42217C18.4738 6.27167 18.3505 6.13323 18.2552 6.03162C18.2078 5.9811 18.1679 5.9403 18.1401 5.91242C18.1263 5.89849 18.1154 5.88781 18.1083 5.88079C18.1047 5.87729 18.102 5.8747 18.1004 5.87307C18.0995 5.87225 18.0989 5.87167 18.0986 5.87134L18.0983 5.87104Z"></path>
<path fill="#1D1D1B" d="M41.5356 10.4766C41.5794 10.4556 41.5571 10.4565 41.5297 10.4966L42.0354 10.8413C41.969 10.9388 41.8689 10.9954 41.8006 11.0282C41.7228 11.0656 41.6312 11.0973 41.5343 11.1249C41.3397 11.1804 41.0882 11.2297 40.8028 11.2739C40.2299 11.3628 39.4854 11.437 38.7084 11.4972C37.1529 11.6179 35.4416 11.6848 34.6545 11.7005C34.0405 11.7128 33.7733 12.092 33.4154 12.5554C33.2488 12.7712 33.0435 13.0285 32.757 13.1758C32.4459 13.3358 32.0855 13.3468 31.6535 13.1822C30.8939 12.8928 29.962 12.4854 29.0538 12.2964C28.1406 12.1064 27.3678 12.1631 26.8562 12.6747C26.2244 13.3063 25.0668 14.3722 24.0721 15.2759C23.5737 15.7287 23.1145 16.1422 22.7799 16.4426C22.6126 16.5928 22.4765 16.7147 22.3821 16.7991C22.3349 16.8413 22.2982 16.8741 22.2732 16.8964C22.2608 16.9075 22.2512 16.916 22.2448 16.9218C22.2416 16.9246 22.2392 16.9268 22.2375 16.9282C22.2367 16.929 22.2361 16.9295 22.2357 16.9299C22.2355 16.9301 22.2353 16.9302 22.2352 16.9303C22.2352 16.9304 22.2351 16.9304 22.2351 16.9304C22.235 16.9304 22.2316 16.9265 22.0314 16.7021C21.8328 16.4793 21.828 16.4738 21.8279 16.4736C21.8279 16.4736 21.8279 16.4736 21.828 16.4735C21.8281 16.4734 21.8282 16.4733 21.8284 16.4731C21.8288 16.4728 21.8294 16.4722 21.8302 16.4715C21.8318 16.4701 21.8342 16.4679 21.8374 16.4651C21.8438 16.4594 21.8533 16.451 21.8657 16.4399C21.8905 16.4177 21.9271 16.385 21.9742 16.3429C22.0683 16.2588 22.2041 16.1371 22.3711 15.9872C22.7051 15.6874 23.1633 15.2747 23.6606 14.8229C24.6572 13.9175 25.8038 12.8615 26.4235 12.2419C27.1633 11.5022 28.2128 11.4963 29.1785 11.6973C30.1493 11.8993 31.1529 12.3366 31.8714 12.6104C32.1786 12.7274 32.3529 12.6954 32.4771 12.6316C32.626 12.555 32.7564 12.4075 32.931 12.1814C33.2556 11.761 33.6923 11.1077 34.6423 11.0887C35.4193 11.0732 37.1187 11.0067 38.6611 10.8871C39.433 10.8272 40.1592 10.7545 40.7089 10.6692C40.9848 10.6264 41.2076 10.5817 41.3664 10.5364C41.4463 10.5136 41.5013 10.4931 41.5356 10.4766Z"></path>
<path fill="#1D1D1B" d="M32.4957 7.69519C32.4965 7.69546 32.4977 7.69587 32.4993 7.69641C32.5025 7.69749 32.5073 7.69911 32.5136 7.70126C32.5263 7.70556 32.5452 7.71197 32.57 7.72034C32.6196 7.73707 32.6928 7.7617 32.7866 7.79315C32.9744 7.85607 33.2452 7.94634 33.577 8.05565C34.2408 8.27431 35.1484 8.56905 36.124 8.87346C38.0869 9.48589 40.29 10.1261 41.3554 10.2783C42.5059 10.4426 43.1395 10.8495 43.4824 11.2616C43.6519 11.4653 43.7428 11.6615 43.7911 11.8123C43.8152 11.8875 43.8287 11.9511 43.8362 11.9986C43.84 12.0224 43.8423 12.0422 43.8437 12.0574C43.8443 12.0651 43.8448 12.0716 43.8451 12.0769C43.8453 12.0796 43.8454 12.0819 43.8455 12.084C43.8456 12.085 43.8456 12.086 43.8457 12.0869C43.8457 12.0873 43.8457 12.0877 43.8457 12.0881C43.8457 12.0883 43.8457 12.0886 43.8457 12.0887C43.8456 12.089 43.8414 12.0894 43.5399 12.0989C43.2341 12.1085 43.2341 12.1088 43.2341 12.109C43.2341 12.1091 43.2341 12.1093 43.2341 12.1095C43.2341 12.1098 43.2341 12.1102 43.2341 12.1104C43.2341 12.111 43.2342 12.1115 43.2342 12.112C43.2342 12.1129 43.2343 12.1135 43.2343 12.1139C43.2343 12.1137 43.2342 12.1134 43.2342 12.1131C43.234 12.1105 43.2333 12.1041 43.2318 12.0943C43.2287 12.0747 43.2221 12.0418 43.2084 11.9991C43.1812 11.9143 43.1257 11.7897 43.012 11.6531C42.7885 11.3845 42.3082 11.0326 41.2688 10.8841C40.1443 10.7235 37.8894 10.0653 35.9417 9.45764C34.9621 9.152 34.0513 8.85622 33.3855 8.63689C33.0526 8.52721 32.7808 8.43661 32.5922 8.37341C32.4979 8.3418 32.4244 8.31704 32.3744 8.30017C32.3494 8.29174 32.3303 8.28529 32.3174 8.28093C32.3109 8.27875 32.306 8.27708 32.3028 8.27597C32.3011 8.27541 32.2999 8.27499 32.299 8.2747C32.2986 8.27456 32.2983 8.27446 32.2981 8.27438C32.298 8.27435 32.2979 8.27433 32.2978 8.27431C32.2978 8.27429 32.2977 8.27427 32.3961 7.98453C32.4945 7.69479 32.4945 7.69481 32.4946 7.69482L32.4957 7.69519Z"></path>
<path fill="white" d="M24.0853 5.06002C23.7313 5.30904 23.3987 5.59973 23.1481 5.8351C22.8666 6.09943 22.4878 6.20252 22.1924 6.09661C22.1296 6.07401 22.0668 6.05188 22.0079 6.03141C21.8759 5.98551 21.8686 5.80662 21.9938 5.68917L22.8303 4.90444C23.5637 4.25598 24.1752 4.19785 24.5193 4.67377C24.7081 4.9348 24.3398 4.88114 24.0856 5.06002H24.0853Z"></path>
<path fill="#010101" d="M23.7827 4.06386C24.1826 4.01366 24.5306 4.1671 24.7673 4.49445L24.7783 4.51011C24.8355 4.59296 24.9168 4.74419 24.856 4.91939C24.7956 5.09349 24.6352 5.15985 24.5858 5.18034C24.5314 5.20289 24.4249 5.23655 24.3906 5.24887C24.3334 5.26944 24.2924 5.28865 24.2616 5.31026L24.229 5.33322C23.9241 5.55079 23.6346 5.80076 23.4043 6.01445L23.3575 6.05817C23.0202 6.37484 22.5346 6.5338 22.1094 6.39162L22.0892 6.38463L22.0889 6.38454C22.0273 6.3624 21.9656 6.34063 21.9075 6.32041C21.707 6.25075 21.6058 6.07291 21.5986 5.89968C21.5919 5.73527 21.665 5.57803 21.7845 5.46599L22.6243 4.6782L22.6276 4.67521C23.0159 4.3319 23.4081 4.11089 23.7827 4.06386ZM24.1035 4.70406C24.0325 4.66958 23.9522 4.65937 23.8589 4.67107C23.659 4.69618 23.3797 4.8278 23.0358 5.13116L22.309 5.813C22.4706 5.86354 22.7242 5.81339 22.9386 5.61204L22.9877 5.56623C23.238 5.33389 23.5622 5.05388 23.9093 4.80975L23.9885 4.75403H23.9994C24.0351 4.73449 24.0703 4.71806 24.1035 4.70406Z"></path>
<path fill="white" d="M26.7071 5.88618C26.3649 6.11496 26.0472 6.38705 25.8087 6.60854C25.5411 6.85733 25.1638 6.93735 24.8571 6.81213C24.7917 6.78554 24.7265 6.75894 24.6655 6.7347C24.5285 6.68009 24.509 6.49932 24.6281 6.3887L25.4237 5.65033C26.1239 5.04283 26.7401 5.02282 27.1209 5.52393C27.3299 5.79885 26.9529 5.72165 26.7069 5.88594L26.7071 5.88618Z"></path>
<path fill="#010101" d="M26.3727 4.86604C26.7739 4.84066 27.1183 5.0147 27.3646 5.33879C27.4 5.3854 27.436 5.44097 27.4597 5.50408C27.4842 5.56923 27.5015 5.65928 27.473 5.75816C27.4166 5.95385 27.2339 6.01785 27.1882 6.03431C27.1509 6.04773 27.1121 6.05855 27.0819 6.06681C27.0482 6.07603 27.0216 6.08306 26.9933 6.09161C26.9437 6.10662 26.9099 6.12049 26.8859 6.13469L26.8772 6.14055C26.5536 6.35691 26.249 6.61714 26.017 6.83263L26.0171 6.83265C25.673 7.15247 25.1718 7.27087 24.7419 7.09558C24.6758 7.06874 24.612 7.04272 24.5524 7.01902L24.5522 7.01893C24.3701 6.94634 24.2649 6.78491 24.2466 6.6156C24.2287 6.44988 24.2924 6.28289 24.4199 6.1645L24.42 6.16441L25.2155 5.42606L25.2193 5.42257L25.2231 5.41921C25.6001 5.09221 25.9908 4.89021 26.3727 4.86604ZM26.7025 5.54531C26.6131 5.49073 26.5163 5.47013 26.4114 5.47677C26.2156 5.48916 25.9493 5.60023 25.6274 5.87867L24.9409 6.51586L24.9723 6.52866L24.9725 6.52876L24.9728 6.52885C25.1562 6.60373 25.4093 6.56207 25.6004 6.38443L25.6005 6.38436L25.6474 6.34105C25.8136 6.18865 26.0149 6.01497 26.2356 5.84735L26.2269 5.83861L26.537 5.63149C26.5925 5.5944 26.6495 5.56664 26.7025 5.54531Z"></path>
<path fill="white" d="M29.2925 6.65232C28.9834 6.85568 28.6972 7.09882 28.4828 7.29701C28.242 7.51967 27.8991 7.58699 27.6178 7.46883C27.5578 7.44364 27.498 7.4187 27.4422 7.39563C27.3168 7.34408 27.2965 7.17932 27.4039 7.08023L28.1196 6.41954C28.7502 5.87653 29.3118 5.86711 29.6656 6.32868C29.8595 6.58194 29.5147 6.50615 29.2927 6.65232H29.2925Z"></path>
<path fill="#010101" d="M28.9818 5.69175C29.3508 5.6742 29.6676 5.83624 29.8975 6.12853L29.9084 6.14255L29.921 6.15938C29.9503 6.19937 29.9793 6.24618 29.9997 6.29876C30.0235 6.36036 30.0425 6.44869 30.0152 6.54714C29.9605 6.74499 29.7752 6.80602 29.735 6.81989C29.6998 6.83206 29.6633 6.84162 29.636 6.84869C29.6051 6.85669 29.5816 6.86256 29.5565 6.86977C29.5065 6.88414 29.4782 6.89658 29.461 6.90786L29.4318 6.9271C29.1527 7.11401 28.8913 7.33612 28.6905 7.52172C28.3693 7.81871 27.9005 7.91945 27.4993 7.75093C27.4399 7.726 27.3809 7.70136 27.326 7.67864L27.3259 7.67866C26.9547 7.52614 26.9566 7.07673 27.1963 6.85541L27.1963 6.85538L27.9121 6.19468L27.916 6.19112L27.92 6.18767C28.2634 5.89188 28.6246 5.70876 28.9818 5.69175ZM29.221 6.34285C29.1545 6.31147 29.0845 6.29954 29.0109 6.30304C28.8419 6.31108 28.608 6.40354 28.3223 6.64881L27.7386 7.18762C27.8997 7.25414 28.1155 7.21994 28.2751 7.07234L28.2751 7.0723L28.3175 7.03341C28.5338 6.83617 28.8166 6.59918 29.1243 6.3967L29.2009 6.34634H29.2137C29.2161 6.34515 29.2186 6.344 29.221 6.34285Z"></path>
<path fill="white" d="M31.6086 7.55474C31.3819 7.72585 31.1856 7.9311 31.0423 8.09892C30.8813 8.28722 30.5913 8.34112 30.3109 8.23614C30.2512 8.21378 30.1916 8.19166 30.1361 8.17118C30.0111 8.12528 29.9529 7.98359 30.0245 7.8998L30.5028 7.34078C30.9337 6.88181 31.4337 6.88039 31.8628 7.28123C32.0981 7.50107 31.7714 7.43187 31.6086 7.55474Z"></path>
<path fill="#010101" d="M31.1735 6.68276C31.5066 6.67184 31.814 6.81696 32.0716 7.05761L32.0856 7.0709C32.1184 7.10252 32.1513 7.13838 32.1786 7.1782C32.2071 7.21982 32.2515 7.29748 32.2512 7.40028C32.2509 7.52248 32.1891 7.61284 32.1256 7.66618C32.0725 7.7109 32.0157 7.73275 31.9865 7.743C31.9538 7.75453 31.9201 7.76314 31.8977 7.76881C31.871 7.77556 31.8532 7.77986 31.834 7.78532C31.8039 7.79392 31.7927 7.79967 31.7913 7.80026L31.7928 7.79902C31.5902 7.95198 31.4101 8.13938 31.2749 8.29764L31.2748 8.29776C31.0095 8.60811 30.5715 8.66042 30.2038 8.52274L30.1154 8.48978C30.0863 8.47898 30.0577 8.46841 30.0302 8.45827C29.8878 8.40586 29.7775 8.29731 29.7235 8.16598C29.6693 8.03397 29.665 7.84957 29.7918 7.7011L29.792 7.70087L30.2703 7.14185L30.2749 7.1365L30.2797 7.13133C30.5353 6.85914 30.84 6.69369 31.1735 6.68276ZM31.1935 7.29439C31.063 7.29867 30.9038 7.36244 30.73 7.54585L30.3927 7.94006L30.4181 7.94955L30.4183 7.9496L30.4362 7.95599C30.6199 8.01832 30.7548 7.96422 30.8097 7.90008C30.9554 7.72954 31.1574 7.51675 31.3956 7.33241C31.3234 7.3034 31.2556 7.29235 31.1935 7.29439ZM31.783 7.16583C31.7832 7.16577 31.7833 7.16574 31.7835 7.16569C31.7853 7.16507 31.785 7.16507 31.783 7.16583Z"></path>
<path fill="white" d="M21.677 3.97801C21.327 4.21338 21.0014 4.4923 20.7571 4.71944C20.4827 4.97435 20.0988 5.05884 19.7886 4.9341C19.7224 4.9075 19.6565 4.88114 19.5949 4.85689C19.4565 4.80252 19.4383 4.61893 19.5605 4.50572L20.3761 3.74899C21.0932 3.12595 21.7196 3.10054 22.1011 3.60682C22.3104 3.88457 21.9284 3.80901 21.677 3.97801Z"></path>
<path fill="#010101" d="M21.3427 2.94919C21.7424 2.9207 22.0868 3.08846 22.3338 3.40737L22.3455 3.42267L22.3455 3.4227L22.3565 3.43748C22.4137 3.51628 22.5048 3.66739 22.4517 3.84561C22.3942 4.03856 22.2143 4.10318 22.1671 4.12047C22.1295 4.13426 22.0903 4.14546 22.0596 4.1541C22.0254 4.1637 21.9982 4.17112 21.9692 4.18008C21.9118 4.19786 21.8739 4.2143 21.8477 4.23193C21.5159 4.4551 21.2033 4.72244 20.9655 4.94355L20.9654 4.94364C20.6221 5.26246 20.1255 5.38905 19.6949 5.22597L19.6744 5.218C19.6085 5.1915 19.5435 5.16547 19.4829 5.14166C19.2975 5.0688 19.1922 4.90426 19.1755 4.73325C19.1591 4.5664 19.2249 4.39956 19.3525 4.28128L20.168 3.52468L20.1716 3.52128L20.1754 3.518L20.2115 3.48703C20.5848 3.17107 20.9689 2.97584 21.3427 2.94919ZM21.6877 3.63044C21.5961 3.57316 21.4961 3.55179 21.3862 3.55962C21.1849 3.57397 20.911 3.69037 20.5799 3.97727L19.8691 4.63673C19.8803 4.64123 19.8915 4.6457 19.9027 4.6502L19.9115 4.6536C20.0961 4.72327 20.3518 4.67827 20.5489 4.49523C20.7997 4.26209 21.1381 3.97165 21.5062 3.72411L21.5062 3.72406L21.525 3.71188C21.58 3.67701 21.636 3.65077 21.6877 3.63044Z"></path>
</svg>
