<svg xmlns="http://www.w3.org/2000/svg" fill="none" viewBox="0 0 45 21" height="21" width="45">
<path fill="white" d="M4.00003 3L5.00003 1.5L9.00003 5H14.5L15 2L15.5 1.5L21.5 3.5L23.5 4.5L26.5 5.5L30 7L32.5 8L43 11V14L42 15.5L35.5 18.5H34.5L33 19H30.5L29 19.5H24L22.5 18.5L21.5 19.5L19.5 18.5L17 19L14.5 18.5L13 19.5L4.00003 19L1 16.5L2 15V9.5L2.5 7L4.00003 3Z"></path>
<path fill="#010101" d="M5.40039 1.31069C5.61379 1.3388 5.78461 1.46592 5.94727 1.61635C6.11278 1.76947 6.3231 1.99874 6.60742 2.30385C6.89652 2.6141 7.27527 3.0176 7.79199 3.53432L7.96289 3.69155C8.86133 4.45341 10.3775 4.82643 11.9678 4.83315C13.6591 4.84029 15.3203 4.43174 16.2471 3.756C17.2873 2.99751 18.1424 2.74472 18.7568 2.69253C19.0628 2.66655 19.3051 2.69074 19.4756 2.72378C19.5606 2.74025 19.6277 2.75898 19.6758 2.77456C19.6996 2.78228 19.719 2.78948 19.7334 2.79507C19.7385 2.79703 19.7432 2.79934 19.7471 2.80092L19.75 2.8019C19.7517 2.80254 19.7545 2.80357 19.7578 2.80483C19.7645 2.80744 19.7748 2.81142 19.7881 2.81655C19.8146 2.82681 19.854 2.84259 19.9053 2.86245C20.0079 2.90217 20.1589 2.96016 20.3506 3.03432C20.7341 3.18275 21.2827 3.39462 21.9414 3.64956C23.2591 4.15957 25.0191 4.84132 26.7881 5.52651C30.32 6.89456 33.9042 8.28449 34.0566 8.34975L34.1582 8.37807C34.2309 8.39775 34.3307 8.42393 34.4551 8.45522C34.7037 8.5178 35.0446 8.60034 35.4482 8.69839C36.2546 8.89426 37.3097 9.14887 38.3711 9.41225C39.432 9.67553 40.5024 9.94899 41.3398 10.1828C41.7582 10.2995 42.1225 10.4074 42.3994 10.5001C42.5373 10.5463 42.6574 10.5906 42.7539 10.631C42.8395 10.6669 42.9403 10.7129 43.0107 10.7716L43.084 10.841C43.2443 11.015 43.339 11.269 43.3955 11.5246C43.4633 11.8313 43.4889 12.2028 43.4697 12.6007C43.4313 13.3954 43.2123 14.3396 42.7471 15.1593C42.6104 15.4 42.3848 15.6302 42.1201 15.8458C41.8519 16.0644 41.5254 16.2826 41.167 16.4953C40.4501 16.9206 39.5838 17.337 38.7529 17.7013C37.9207 18.0662 37.1167 18.382 36.5215 18.6066C36.224 18.7188 35.9783 18.8087 35.8066 18.8703C35.7208 18.901 35.6534 18.9254 35.6074 18.9415C35.5844 18.9496 35.5667 18.9559 35.5547 18.9601C35.5489 18.9621 35.5441 18.9629 35.541 18.964C35.5395 18.9645 35.5379 18.9657 35.5371 18.966L35.1309 19.1056V18.5207L34.8516 18.5861L33.6064 19.4308L33.5352 19.4787L33.4482 19.4826L31.2119 19.5802V19.0665H30.877L29.3975 19.7648L29.335 19.7941H26.585V19.298L26.4873 19.2921V19.7941H23.8857L22.832 19.1417L22.2363 19.0919V19.6769L20.4443 19.5236L20.3965 19.5197L20.3516 19.5001L19.3154 19.0617L18.3174 19.0021V19.4474L18.0049 19.4415L16.0459 19.3996L15.9678 19.3976L15.9004 19.3595L15.1074 18.9054L14.7783 18.9328C14.7497 18.9511 14.7123 18.975 14.6689 19.0031C14.5666 19.0694 14.4316 19.1581 14.3018 19.2472C14.1703 19.3375 14.0506 19.4232 13.9736 19.4865C13.9693 19.49 13.9647 19.4931 13.9609 19.4962C13.9442 19.5393 13.9226 19.5726 13.9043 19.5929C13.8518 19.6508 13.7905 19.6719 13.7852 19.674C13.7668 19.681 13.751 19.6848 13.7432 19.6867C13.7155 19.6933 13.6864 19.6967 13.6709 19.6984C13.6309 19.7027 13.5725 19.707 13.5029 19.7111C13.3615 19.7194 13.1515 19.7293 12.8887 19.7384C12.3618 19.7567 11.6153 19.7749 10.7666 19.7853C9.07131 19.8062 6.95668 19.7956 5.36035 19.6906C3.67173 19.5795 2.54779 18.7206 1.85352 17.8996C1.50726 17.49 1.26547 17.0882 1.11035 16.7882C1.03285 16.6384 0.976897 16.513 0.939453 16.424C0.920734 16.3795 0.906045 16.3436 0.896484 16.3185C0.8918 16.3062 0.888328 16.2963 0.885742 16.2892L0.881836 16.2775L0.880859 16.2765C0.880806 16.2764 0.881145 16.2762 1.16992 16.1759L0.880859 16.2765L0.826172 16.1193L1.9375 14.6896C1.8979 14.6347 1.85623 14.5691 1.81445 14.4914C1.6774 14.2361 1.5423 13.8545 1.47852 13.296L1.45605 13.046C1.43609 12.7572 1.47603 12.2627 1.51367 11.7785C1.54303 11.4009 1.57213 11.0174 1.58008 10.6915V10.1046C1.61524 8.65696 2.20425 6.66823 2.8584 4.99526C3.21007 4.0959 3.58664 3.27154 3.91992 2.65053C4.08621 2.34069 4.24472 2.07546 4.38672 1.87514C4.45753 1.77525 4.52811 1.68637 4.59668 1.6144C4.66034 1.54759 4.74309 1.47365 4.84082 1.43081L4.96777 1.37807C5.09915 1.32793 5.24455 1.29018 5.40039 1.31069ZM13.5381 19.6583L13.5791 19.6759L13.5107 19.6417C13.5206 19.6482 13.5296 19.654 13.5381 19.6583ZM19.5127 3.36538C19.5083 3.3637 19.4997 3.36061 19.4873 3.35659C19.4615 3.34825 19.4186 3.33585 19.3594 3.32436C19.2407 3.30138 19.055 3.28196 18.8086 3.30288C18.3183 3.34455 17.568 3.54969 16.6074 4.25014C15.5331 5.0335 13.7223 5.45289 11.9648 5.44546C10.3219 5.43847 8.62543 5.05795 7.56348 4.15444L7.35938 3.96694C6.83549 3.44306 6.45074 3.03373 6.15918 2.72085C5.86317 2.40318 5.67511 2.19862 5.53125 2.06557C5.38445 1.9298 5.33395 1.91893 5.32031 1.91714C5.31069 1.91589 5.29507 1.91563 5.26074 1.92495L5.08594 1.99038C5.10045 1.98403 5.08589 1.9882 5.04004 2.03628C4.99888 2.07947 4.94675 2.14357 4.88574 2.22964C4.76409 2.40131 4.61885 2.64173 4.45898 2.9396C4.13963 3.53465 3.77354 4.33607 3.42871 5.21792C2.77698 6.88462 2.22502 8.78489 2.19141 10.1115V10.7023C2.18298 11.0546 2.15273 11.456 2.12402 11.8253C2.08423 12.3372 2.04941 12.7724 2.06543 13.004L2.08594 13.2267C2.1422 13.7194 2.25738 14.024 2.35254 14.2013C2.39398 14.2785 2.43392 14.3316 2.46289 14.3673L2.55371 14.4582L2.36035 14.6925L2.57812 14.8624L1.51953 16.2228C1.55121 16.2959 1.59536 16.393 1.6543 16.507C1.79355 16.7763 2.01011 17.1382 2.32031 17.505C2.93914 18.2368 3.92072 18.9829 5.40039 19.0802C6.97225 19.1836 9.06817 19.1948 10.7598 19.174C11.6043 19.1636 12.3456 19.1452 12.8672 19.1271C13.1281 19.118 13.3326 19.1086 13.4668 19.1007C13.4755 19.1002 13.4842 19.0993 13.4922 19.0988C13.5229 19.0682 13.5556 19.039 13.585 19.0148C13.6837 18.9336 13.8221 18.8343 13.9561 18.7423C14.092 18.649 14.2312 18.5573 14.3359 18.4894C14.3884 18.4554 14.4328 18.4272 14.4639 18.4074C14.4792 18.3976 14.4916 18.3902 14.5 18.3849C14.5041 18.3823 14.5075 18.3805 14.5098 18.379C14.5109 18.3783 14.5121 18.3775 14.5127 18.3771L14.5137 18.3761L14.5762 18.3371L14.6514 18.3302L15.1514 18.2892L15.2461 18.2804L15.3281 18.3283L16.1367 18.7892L17.7051 18.8234V18.3517L18.0303 18.3722L19.4053 18.4552L19.458 18.4582L19.5059 18.4787L20.5459 18.9181L21.625 19.0099V18.4279L21.9561 18.4552L22.9561 18.5392L23.0293 18.5451L24.0615 19.1828H25.876V18.6447L26.1992 18.6632L26.9082 18.7052L27.1963 18.7218V19.1828H29.1963L30.6787 18.4835L30.7402 18.4542H31.8232V18.9406L33.334 18.8751L34.5557 18.049L34.6025 18.0167L34.6572 18.004L35.3662 17.8371L35.7422 17.7492V18.2423C35.8951 18.1868 36.0862 18.1171 36.3057 18.0343C36.8946 17.8121 37.6883 17.5001 38.5078 17.1408C39.3286 16.7809 40.1694 16.3769 40.8555 15.9699C41.1986 15.7663 41.4976 15.5651 41.7344 15.3722C41.9747 15.1764 42.1336 15.0024 42.2158 14.8576C42.6259 14.1351 42.8238 13.2868 42.8584 12.5705C42.8756 12.2132 42.8521 11.8989 42.7988 11.6574C42.7564 11.4653 42.7016 11.3483 42.6582 11.2863L42.6191 11.2414C42.6271 11.248 42.6055 11.2313 42.5176 11.1945C42.4407 11.1623 42.3361 11.1241 42.2051 11.0802C41.9429 10.9924 41.5904 10.8874 41.1758 10.7716C40.3472 10.5403 39.2835 10.269 38.2236 10.006C37.1642 9.7431 36.1114 9.48932 35.3037 9.29311C34.9003 9.19511 34.5571 9.11127 34.3057 9.04799C34.1802 9.01642 34.076 8.98999 33.998 8.96889L33.8154 8.91128C33.8145 8.9109 33.8121 8.90996 33.8105 8.90932C33.8074 8.90802 33.8031 8.90654 33.7979 8.90444C33.7874 8.90023 33.7731 8.89469 33.7559 8.88784C33.7214 8.87415 33.6742 8.8553 33.6152 8.83217C33.4971 8.78579 33.332 8.72166 33.127 8.64174C32.7162 8.48168 32.1448 8.25904 31.4678 7.99624C30.1138 7.47066 28.3353 6.78199 26.5664 6.09682C24.7975 5.41164 23.0373 4.72986 21.7197 4.21987C21.0613 3.96502 20.5133 3.75302 20.1299 3.60464C19.9382 3.53047 19.7872 3.47248 19.6846 3.43276C19.6332 3.4129 19.5939 3.39712 19.5674 3.38686C19.5541 3.38173 19.5438 3.37775 19.5371 3.37514C19.5339 3.37389 19.531 3.37285 19.5293 3.37221H19.5273L19.5195 3.36831L19.5127 3.36538Z"></path>
<path fill="#010101" d="M2.55881 6.84643C2.55965 6.84676 2.56112 6.84775 2.56272 6.84838C2.56629 6.84979 2.57228 6.85146 2.57932 6.85424C2.59339 6.8598 2.61454 6.86885 2.64182 6.87963C2.69643 6.90122 2.77671 6.93282 2.87912 6.97338C3.08453 7.05474 3.37946 7.17223 3.7385 7.31518C4.45691 7.60121 5.43216 7.99055 6.45627 8.40502C8.49723 9.23103 10.7561 10.1643 11.5617 10.5671C12.0179 10.7953 12.4349 11.2117 12.7971 11.6765C13.1631 12.1462 13.4923 12.6906 13.7678 13.2019C14.0437 13.714 14.269 14.1998 14.425 14.5574C14.5031 14.7364 14.5641 14.8841 14.6057 14.9871C14.6264 15.0383 14.6427 15.0784 14.6535 15.1062C14.6589 15.12 14.6634 15.1311 14.6662 15.1384C14.6677 15.1421 14.6684 15.1452 14.6692 15.1472L14.6701 15.1492L14.8225 15.5505L14.3947 15.5642H14.3928C14.3917 15.5642 14.39 15.5651 14.3879 15.5652C14.3835 15.5653 14.3769 15.5649 14.3684 15.5652C14.3511 15.5657 14.3248 15.5671 14.2912 15.5681C14.2242 15.57 14.1255 15.5728 13.9992 15.5759C13.7462 15.5822 13.3817 15.5896 12.9348 15.5964C12.0412 15.6101 10.8176 15.6196 9.49827 15.6013C8.17936 15.583 6.76133 15.5375 5.48069 15.4412C4.20586 15.3452 3.04514 15.1976 2.25217 14.9695L2.42209 14.3816C3.15071 14.5911 4.25747 14.7353 5.52659 14.8308C6.78994 14.9259 8.19376 14.9718 9.50608 14.99C10.8178 15.0082 12.0354 14.9988 12.925 14.9851C13.3404 14.9787 13.6845 14.9706 13.9328 14.9646C13.9115 14.9145 13.8895 14.8599 13.8645 14.8025C13.7131 14.4555 13.4955 13.9852 13.2297 13.4919C12.9633 12.9975 12.6521 12.4855 12.3147 12.0525C11.9736 11.6147 11.624 11.2819 11.2883 11.114C10.5099 10.7248 8.2794 9.80216 6.22678 8.97143C5.20407 8.55753 4.23063 8.16832 3.51291 7.88256C3.15407 7.73969 2.8587 7.62301 2.65354 7.54174C2.55109 7.50116 2.47067 7.46951 2.41623 7.44799C2.38928 7.43734 2.36867 7.42909 2.35471 7.42358C2.34785 7.42087 2.34263 7.41814 2.33909 7.41674C2.33731 7.41604 2.33509 7.41612 2.3342 7.41577L2.33323 7.41479L2.55881 6.84643Z"></path>
<path fill="#010101" d="M43.1072 13.1455L43.3816 13.2813C43.3119 13.4221 43.1967 13.5479 43.0672 13.6602C42.9348 13.7749 42.7705 13.889 42.5828 14.002C42.2075 14.2278 41.7158 14.4626 41.1414 14.6963C39.9912 15.1644 38.4811 15.6417 36.8455 16.0508C33.5861 16.866 29.7641 17.4258 27.2635 17.0625C24.8307 16.709 21.6046 16.3344 18.9842 16.0479C17.6745 15.9047 16.5163 15.7835 15.6863 15.6983C15.2715 15.6556 14.938 15.6217 14.7088 15.5986C14.5945 15.5872 14.506 15.5782 14.4461 15.5723C14.4161 15.5693 14.393 15.567 14.3777 15.5654C14.3701 15.5647 14.364 15.5639 14.3601 15.5635H14.3543L14.4148 14.9541L14.4158 14.9551C14.4168 14.9552 14.4187 14.9549 14.4207 14.9551C14.4246 14.9555 14.4307 14.9563 14.4383 14.957L14.7703 14.9902C15 15.0133 15.3334 15.0472 15.7488 15.0899C16.5798 15.1752 17.7392 15.2961 19.0506 15.4395C21.672 15.7261 24.9072 16.1019 27.3513 16.457C29.7279 16.8024 33.4526 16.2695 36.6971 15.458C38.3133 15.0538 39.7944 14.5842 40.9109 14.1299C41.4699 13.9024 41.9305 13.6818 42.2683 13.4785C42.4371 13.377 42.5695 13.2826 42.6668 13.1983C42.7669 13.1114 42.815 13.0476 42.8338 13.0098L43.1072 13.1455Z"></path>
<path fill="#010101" d="M15.6092 4.32467L15.6112 4.32564C15.613 4.32674 15.6162 4.3283 15.62 4.33053C15.6276 4.33502 15.639 4.34219 15.6541 4.35103C15.6847 4.36885 15.7302 4.39539 15.7889 4.42916C15.9063 4.4967 16.0776 4.59401 16.2909 4.71236C16.7176 4.94916 17.313 5.26977 17.9872 5.60592C19.345 6.2829 20.9905 7.00515 22.2245 7.24654C23.53 7.50189 25.8402 8.24237 27.6444 9.08639C28.5418 9.50622 29.3458 9.96521 29.8348 10.4213C30.0761 10.6465 30.2766 10.9034 30.3426 11.186C30.4071 11.4625 30.3336 11.7214 30.1444 11.936L30.0555 12.0258C29.349 12.6671 27.9543 13.812 26.743 14.7915C26.1358 15.2825 25.5726 15.7344 25.161 16.0629C24.9554 16.227 24.7872 16.3601 24.6707 16.4526C24.6125 16.4989 24.5668 16.5356 24.536 16.56C24.5207 16.5721 24.5087 16.5811 24.5008 16.5874C24.4969 16.5905 24.4941 16.5936 24.492 16.5952L24.4901 16.5962L24.4891 16.5971C24.4891 16.5972 24.4885 16.5975 24.2987 16.3579L24.1092 16.1176C24.1097 16.1173 24.1112 16.1164 24.1122 16.1157C24.1141 16.1141 24.117 16.111 24.1209 16.1079C24.1288 16.1016 24.1409 16.0926 24.1561 16.0805C24.1868 16.0562 24.2319 16.0202 24.2899 15.9741C24.4061 15.8818 24.5737 15.7484 24.7791 15.5844C25.1901 15.2565 25.7524 14.8058 26.3582 14.3159C27.5728 13.3337 28.9532 12.2001 29.6444 11.5727L29.7098 11.5014C29.7582 11.4347 29.7595 11.3799 29.7469 11.3256C29.7223 11.2199 29.6275 11.0651 29.4168 10.8686C29.0015 10.4814 28.272 10.0548 27.3856 9.6401C25.6215 8.81484 23.3587 8.09189 22.1073 7.84713C20.7843 7.58838 19.0731 6.83153 17.7137 6.15377C17.0295 5.81261 16.4264 5.48651 15.994 5.24654C15.7779 5.12661 15.604 5.02834 15.4842 4.95943C15.4246 4.92511 15.3781 4.8978 15.3465 4.87935C15.3309 4.87021 15.3186 4.86269 15.3104 4.85787C15.3064 4.85553 15.3028 4.85424 15.3006 4.85299L15.2977 4.85103C15.2976 4.851 15.2972 4.85053 15.453 4.58736C15.5888 4.35792 15.607 4.32843 15.6092 4.32467Z"></path>
<path fill="#010101" d="M35.8568 9.19225L35.8558 9.1942C35.8552 9.19536 35.8549 9.19719 35.8539 9.19908C35.8518 9.20288 35.8488 9.20811 35.8451 9.21471C35.8376 9.22819 35.8259 9.24737 35.8119 9.27135C35.7838 9.31927 35.743 9.38717 35.6898 9.46862C35.5837 9.63121 35.4276 9.85105 35.2279 10.0809C34.86 10.5043 34.3143 10.9959 33.6283 11.1883L33.4886 11.2225C32.8341 11.3627 32.242 11.6421 31.9047 11.9764C31.7387 12.141 31.6501 12.3036 31.6254 12.4549C31.6018 12.5994 31.6307 12.7702 31.7699 12.9725L31.8011 13.0096C31.8864 13.0935 32.0587 13.1481 32.4144 13.0995C32.8039 13.0462 33.2957 12.8836 33.849 12.6766C34.3881 12.475 34.9888 12.2298 35.5463 12.0409C36.1026 11.8524 36.6642 11.7021 37.1449 11.702C37.9618 11.702 38.9111 11.5246 39.6703 11.2518C40.05 11.1154 40.3694 10.9599 40.597 10.7997C40.8358 10.6316 40.9227 10.4944 40.9388 10.413L41.5385 10.5321C41.4754 10.8501 41.2251 11.1051 40.9486 11.2997C40.661 11.5021 40.2874 11.6806 39.8773 11.828C39.0565 12.1229 38.0372 12.3133 37.1449 12.3133C36.7712 12.3134 36.2906 12.4343 35.7426 12.62C35.1956 12.8053 34.6291 13.0374 34.0638 13.2489C33.5128 13.455 32.9624 13.6413 32.4974 13.7049C32.0774 13.7624 31.6114 13.7339 31.3217 13.3915L31.266 13.3192C31.051 13.0068 30.9692 12.6789 31.0219 12.3563C31.0734 12.0408 31.2469 11.7671 31.474 11.5419C31.9235 11.0963 32.6398 10.7792 33.3607 10.6249L33.5668 10.5672C34.0386 10.4032 34.4507 10.0436 34.767 9.67955C34.944 9.47578 35.0834 9.27981 35.1781 9.13463C35.2254 9.06219 35.2609 9.00219 35.2845 8.96178C35.2962 8.94186 35.3053 8.92683 35.3109 8.91686C35.3136 8.91208 35.3156 8.90834 35.3168 8.90612L35.3177 8.90319L35.8568 9.19225Z"></path>
<path fill="#010101" d="M15.3236 1.08622C15.4249 1.08428 15.5446 1.09235 15.6654 1.10771C15.8929 1.13662 16.1736 1.19932 16.3754 1.29814L16.3763 1.29618L19.9086 2.84989L19.7855 3.13017L19.6625 3.40946L16.1302 1.85673L16.1215 1.85282L16.1136 1.84892C16.0053 1.79368 15.7983 1.74183 15.5883 1.71513C15.4904 1.70268 15.4041 1.69676 15.3412 1.69755C15.3265 1.72995 15.3051 1.78238 15.2787 1.86552C15.2433 1.97693 15.2007 2.13101 15.1498 2.34599L14.9681 3.19169C14.8322 3.87128 14.8997 4.19748 14.9593 4.33622C14.9882 4.4032 15.0166 4.42877 15.0238 4.43485C15.0283 4.43727 15.0279 4.43836 15.0238 4.43485C15.0215 4.43366 15.018 4.43298 15.0131 4.43095C15.0106 4.42993 15.0075 4.42918 15.0043 4.42802C15.0027 4.42745 15.0011 4.42666 14.9994 4.42607C14.9985 4.42576 14.9974 4.4254 14.9965 4.42509L14.9955 4.42411C14.9951 4.42399 14.9935 4.4244 14.9017 4.7161L14.809 5.00712L14.807 5.00614C14.8059 5.00579 14.8042 5.00555 14.8031 5.00517C14.801 5.00445 14.7986 5.00406 14.7963 5.00321C14.7912 5.00139 14.7857 4.99885 14.7797 4.99638C14.7673 4.99126 14.7525 4.98429 14.7367 4.97587C14.7049 4.95896 14.6672 4.93457 14.6273 4.90067C14.5464 4.83184 14.4628 4.72853 14.3978 4.57743C14.2698 4.27946 14.2202 3.81315 14.3685 3.07157L14.4681 2.59013C14.5609 2.15875 14.6344 1.8728 14.6957 1.67997C14.7745 1.43177 14.8485 1.28344 14.9701 1.18485L15.0287 1.14677C15.0869 1.11576 15.1429 1.10479 15.1703 1.09989C15.2202 1.09097 15.2735 1.08718 15.3236 1.08622Z"></path>
<path fill="white" d="M24.3456 5.23969C23.9443 5.53866 23.5627 5.88115 23.2739 6.15684C22.9495 6.4664 22.5334 6.60895 22.224 6.51815C22.1582 6.49886 22.0923 6.47981 22.0307 6.4624C21.8924 6.42335 21.899 6.22976 22.0431 6.09215L23.0071 5.17288C23.8492 4.4098 24.5123 4.29712 24.844 4.78546C25.0258 5.05338 24.634 5.02492 24.3456 5.23969Z"></path>
<path fill="#010101" d="M24.0568 4.20985C24.2574 4.16974 24.4577 4.17651 24.6437 4.24696C24.8313 4.31799 24.983 4.44573 25.0969 4.61317L25.1457 4.69716C25.1916 4.79154 25.2221 4.91759 25.1662 5.05458C25.1026 5.21017 24.9608 5.28109 24.9035 5.30849C24.8442 5.33685 24.7357 5.37815 24.6906 5.39735C24.6581 5.41119 24.6287 5.42498 24.6018 5.43934L24.5285 5.48524C24.2377 5.70187 23.9557 5.94321 23.7131 6.16493L23.4846 6.37782C23.1384 6.70813 22.6557 6.91743 22.2238 6.8329L22.1379 6.81142L21.9475 6.75673C21.8446 6.72765 21.7553 6.66456 21.6965 6.57313C21.6399 6.48517 21.6223 6.38807 21.6252 6.3036C21.6309 6.1383 21.7142 5.98366 21.8322 5.87099L22.7961 4.95204L22.8019 4.94618L22.965 4.8036C23.3451 4.48681 23.7142 4.27843 24.0568 4.20985ZM24.4269 4.81825C24.3691 4.79643 24.2887 4.78712 24.1769 4.80946C23.9446 4.85593 23.6188 5.03044 23.217 5.39345L23.218 5.39442L22.341 6.22938C22.5123 6.2619 22.7995 6.18659 23.0627 5.93544L23.3 5.71376C23.5534 5.48212 23.852 5.22596 24.1633 4.99403L24.3127 4.90028C24.3616 4.87408 24.4085 4.85272 24.4504 4.83485C24.4519 4.83419 24.4537 4.83258 24.4553 4.83192C24.4458 4.82713 24.4365 4.82185 24.4269 4.81825Z"></path>
<path fill="white" d="M26.9119 6.20108C26.5313 6.47041 26.1735 6.78468 25.9041 7.03896C25.6014 7.32453 25.1938 7.43673 24.876 7.32382C24.8082 7.29983 24.7405 7.27607 24.6772 7.25419C24.5351 7.20503 24.5269 7.01262 24.6617 6.88559L25.5609 6.03783C26.3494 5.33685 27.0078 5.2724 27.3786 5.78378C27.582 6.06417 27.1852 6.00748 26.9119 6.20108Z"></path>
<path fill="#010101" d="M26.5879 5.15241C27.0094 5.09836 27.3758 5.25945 27.626 5.60456L27.6758 5.68073C27.7257 5.7706 27.7678 5.89804 27.7187 6.0401C27.6578 6.21594 27.496 6.28428 27.4424 6.30671C27.3844 6.33091 27.2729 6.36661 27.2334 6.38092C27.2023 6.39221 27.1752 6.40373 27.1514 6.4151L27.0889 6.45026C26.8155 6.64369 26.5518 6.86299 26.3262 7.06549L26.1142 7.26178C25.7736 7.58311 25.2911 7.75134 24.8594 7.63874L24.7734 7.61237L24.5771 7.54303C24.3719 7.47197 24.2674 7.29041 24.2598 7.11237C24.2526 6.94301 24.3283 6.7799 24.4521 6.66315L25.3515 5.81549L25.3574 5.80964L25.5137 5.67682C25.8775 5.38343 26.241 5.19703 26.5879 5.15241ZM26.665 5.75983C26.4438 5.78844 26.1401 5.93359 25.7705 6.26081L24.956 7.02741C24.9634 7.03001 24.9711 7.03261 24.9785 7.03522L25.0517 7.05475C25.2333 7.08445 25.4826 7.01619 25.6943 6.81647L25.917 6.61139C26.1555 6.39734 26.4378 6.1618 26.7353 5.95124L26.8144 5.89557H26.831C26.8855 5.86557 26.9375 5.83993 26.9853 5.82135C26.8946 5.76313 26.7896 5.7438 26.665 5.75983Z"></path>
<path fill="white" d="M29.7384 7.28916C29.3921 7.53192 29.0671 7.81584 28.8224 8.04589C28.5477 8.30417 28.1753 8.40297 27.8832 8.29641C27.8208 8.27383 27.7587 8.25125 27.7006 8.23078C27.5701 8.18444 27.5609 8.00826 27.6832 7.89346L28.4997 7.12662C29.216 6.49315 29.8181 6.4407 30.1623 6.91186C30.3509 7.17037 29.9873 7.11463 29.7384 7.28916Z"></path>
<path fill="#010101" d="M29.4347 6.30108C29.8302 6.25443 30.1738 6.40936 30.4093 6.73174L30.4562 6.80303C30.5044 6.88853 30.5475 7.01344 30.5001 7.15362C30.4406 7.32927 30.279 7.39555 30.2306 7.41534C30.1772 7.43714 30.0708 7.47025 30.0382 7.48174C30.0103 7.49161 29.9863 7.50051 29.966 7.51006L29.9142 7.53936C29.5844 7.77058 29.2712 8.04429 29.0324 8.26885C28.6948 8.58596 28.2046 8.73795 27.7794 8.58331L27.5988 8.51885C27.4026 8.44923 27.3011 8.27542 27.2921 8.10381C27.2837 7.94011 27.3544 7.78226 27.4738 7.67022L28.2902 6.90362L28.297 6.89776L28.4396 6.77667C28.7734 6.50935 29.1101 6.33938 29.4347 6.30108ZM29.506 6.9085C29.3121 6.93149 29.0418 7.05724 28.7091 7.34991L28.0021 8.01299C28.1615 8.06345 28.4069 8.01648 28.6124 7.82354L28.8156 7.63702C29.033 7.44282 29.2906 7.22914 29.5626 7.03838L29.6417 6.9837H29.6583C29.6875 6.96813 29.7149 6.9525 29.7423 6.94073C29.6729 6.90793 29.5948 6.89802 29.506 6.9085Z"></path>
<path fill="white" d="M32.5602 8.46025C32.209 8.70794 31.879 8.99704 31.6306 9.23133C31.3514 9.49431 30.975 9.59687 30.6812 9.49172C30.6187 9.46938 30.5561 9.44727 30.4975 9.4268C30.3662 9.38117 30.3583 9.20334 30.4825 9.08643L31.3119 8.30593C32.0392 7.66094 32.6473 7.60307 32.9905 8.07635C33.1789 8.33581 32.8126 8.28218 32.5602 8.46025Z"></path>
<path fill="#010101" d="M32.2573 7.46797C32.6552 7.41803 33.0016 7.57126 33.2377 7.89668L33.2846 7.96895C33.3329 8.05526 33.3758 8.18024 33.3276 8.32051C33.2676 8.49457 33.1072 8.56085 33.0581 8.58125C33.0041 8.60365 32.8974 8.63748 32.8637 8.64961C32.8355 8.65979 32.8114 8.66994 32.7905 8.67989L32.7368 8.71016C32.4018 8.94642 32.0829 9.22454 31.8403 9.45332C31.5424 9.73378 31.1275 9.89036 30.7416 9.82246L30.5786 9.7795C30.5166 9.75738 30.4548 9.73525 30.3969 9.71504C30.1975 9.64571 30.096 9.46958 30.0883 9.29707C30.081 9.13308 30.1538 8.97556 30.2729 8.86348L31.102 8.08321L31.1088 8.07735L31.2534 7.95528C31.5913 7.6834 31.9308 7.50901 32.2573 7.46797ZM32.3334 8.07539C32.1361 8.1002 31.8607 8.22969 31.5219 8.52852L30.7993 9.20723C30.9594 9.25645 31.209 9.20778 31.4204 9.00899L31.6264 8.81954C31.7737 8.68762 31.9391 8.54711 32.1147 8.41036L32.3842 8.21016L32.5454 8.0959C32.4825 8.07225 32.4128 8.06543 32.3334 8.07539Z"></path>
<path fill="white" d="M21.5929 4.16769C21.1721 4.47795 20.7729 4.83456 20.4711 5.12201C20.1321 5.44498 19.6923 5.5887 19.3611 5.48638C19.2905 5.4645 19.2199 5.44309 19.1541 5.42333C19.0059 5.37911 19.0089 5.17376 19.1597 5.03027L20.1667 4.07148C21.0472 3.2764 21.7507 3.16914 22.1139 3.69417C22.3132 3.98209 21.8954 3.94493 21.5929 4.16769Z"></path>
<path fill="#010101" d="M21.2791 3.08689C21.4901 3.04832 21.6993 3.05893 21.8924 3.13474C22.0865 3.21098 22.2442 3.34572 22.365 3.52048L22.4158 3.60446C22.4644 3.70042 22.4991 3.82924 22.4442 3.9697C22.3803 4.13252 22.2306 4.20456 22.1707 4.23239C22.1082 4.26142 21.9945 4.30333 21.9461 4.32321C21.9115 4.33743 21.88 4.35127 21.8514 4.36618L21.7742 4.41403C21.4693 4.63885 21.1743 4.89017 20.9207 5.12107L20.6824 5.34372C20.319 5.68999 19.8118 5.89757 19.3602 5.80173L19.2703 5.77829C19.201 5.75679 19.1314 5.73535 19.0662 5.71579C18.8366 5.64714 18.7365 5.44373 18.7391 5.25974C18.7416 5.08855 18.8253 4.92636 18.949 4.80857L19.9559 3.84958L19.9617 3.8447L20.1326 3.69626C20.5307 3.36672 20.9182 3.15291 21.2791 3.08689ZM21.6688 3.70407C21.6003 3.67719 21.5097 3.66649 21.3895 3.68845C21.1393 3.73418 20.7943 3.91734 20.3719 4.2988L19.4363 5.18943C19.4414 5.191 19.4469 5.19273 19.452 5.19431C19.6414 5.25284 19.9702 5.17699 20.2606 4.90036L20.5086 4.66989C20.7393 4.45979 21.0065 4.23205 21.2869 4.01755V4.01267L21.4119 3.92087L21.5692 3.82419C21.6205 3.79738 21.6696 3.77492 21.7137 3.75681C21.7232 3.75289 21.7326 3.74883 21.742 3.74509C21.7177 3.7282 21.6937 3.71388 21.6688 3.70407Z"></path>
<path fill="#010101" d="M10.4858 12.5839L10.6899 12.6112C11.1571 12.7062 11.5615 13.0074 11.7856 13.4364L12.683 15.1552L12.1401 15.4384L11.2436 13.7196C11.1054 13.455 10.8558 13.2694 10.5678 13.2108L10.4418 13.1932L5.89592 12.8671C5.80692 12.8607 5.71781 12.8749 5.63616 12.9091L5.55705 12.9501L4.8178 13.4052C4.55327 13.5678 4.24062 13.6381 3.93205 13.6005L3.80022 13.577C3.36482 13.4796 2.82191 13.2887 2.39787 13.1268C2.18385 13.0451 1.99608 12.9694 1.86174 12.9139C1.79467 12.8863 1.74083 12.8633 1.70354 12.8475C1.68505 12.8397 1.67047 12.8332 1.66057 12.829C1.65561 12.8269 1.65146 12.8252 1.64885 12.8241C1.64766 12.8236 1.64661 12.8234 1.64592 12.8231L1.64494 12.8221L1.88713 12.2616C1.88766 12.2618 1.8899 12.2621 1.89104 12.2626C1.8933 12.2635 1.89641 12.2656 1.9008 12.2675C1.90998 12.2714 1.924 12.2765 1.94182 12.2841C1.97753 12.2992 2.02985 12.3216 2.09514 12.3485C2.22578 12.4024 2.40877 12.4762 2.61662 12.5555C3.03678 12.7159 3.54459 12.8932 3.93401 12.9803L4.07854 12.9979C4.2242 13.0014 4.36998 12.9621 4.49748 12.8837L5.23674 12.4296L5.4008 12.3456C5.5703 12.2748 5.75481 12.2434 5.93987 12.2567L10.4858 12.5839Z"></path>
<path fill="white" d="M4.46475 7.93346C4.46475 7.93346 5.32734 6.40565 7.08896 6.42753C8.85059 6.44941 9.2213 4.71601 9.2213 4.71601"></path>
<path fill="#010101" d="M8.92276 4.65156L9.52042 4.78046L9.51944 4.78339C9.5191 4.78492 9.51898 4.78699 9.51846 4.78925C9.51735 4.79408 9.51554 4.80086 9.51358 4.80878C9.5096 4.82484 9.50387 4.84775 9.496 4.87519C9.48031 4.9299 9.45635 5.00585 9.42178 5.09589C9.35267 5.27586 9.23946 5.51762 9.06339 5.75995C8.70596 6.25186 8.08622 6.74602 7.08487 6.73359C6.30044 6.72393 5.71448 7.05708 5.31729 7.40253C5.11849 7.57551 4.96961 7.75008 4.871 7.88007C4.82184 7.94488 4.78497 7.99832 4.76163 8.03437C4.75008 8.05221 4.74136 8.06592 4.73624 8.07441C4.73376 8.07852 4.73228 8.08162 4.73135 8.0832C4.72677 8.0805 4.693 8.06233 4.46475 7.93346C4.19847 7.78312 4.19808 7.78254 4.19815 7.78242L4.2001 7.78046C4.20088 7.77911 4.20182 7.77668 4.20303 7.7746C4.20545 7.77047 4.20871 7.76478 4.2128 7.758C4.22113 7.74419 4.23362 7.725 4.24893 7.70136C4.27963 7.65397 4.32461 7.58785 4.3837 7.50995C4.50187 7.35421 4.67907 7.14767 4.91592 6.9416C5.39037 6.52886 6.1161 6.10918 7.09268 6.12128C7.85275 6.13072 8.2999 5.7698 8.56827 5.40058C8.70501 5.21238 8.79504 5.02148 8.85049 4.87714C8.87804 4.80542 8.89667 4.74614 8.90811 4.70624C8.91374 4.6866 8.91751 4.67164 8.91983 4.6623C8.92093 4.65787 8.92138 4.65427 8.92178 4.65253L8.92276 4.65156Z"></path>
</svg>
