<svg width="524" height="101" viewBox="0 0 524 101" fill="none" xmlns="http://www.w3.org/2000/svg">
<path d="M0 98.1598V2.1485H15.4424L46.5957 81.9117H46.8642L77.749 2.1485H93.4599V98.1598H81.9117V19.2023H81.6432C81.6432 19.2023 79.0918 26.722 77.3461 31.2876L51.027 98.1598H41.7616L15.4424 31.2876C13.5624 26.4534 11.1454 19.2023 11.1454 19.2023H10.8768V98.1598H0Z" fill="white"/>
<path d="M138.589 98.1598V2.1485H150.674V98.1598H138.589Z" fill="white"/>
<path d="M239.104 100.174C210.099 100.174 192.105 78.8232 192.105 50.087C192.105 21.3508 210.099 0 239.104 0C268.109 0 286.102 21.3508 286.102 50.087C286.102 78.8232 268.109 100.174 239.104 100.174ZM239.104 89.5658C261.663 89.5658 273.749 72.6463 273.749 50.087C273.749 27.5277 261.663 10.4739 239.104 10.4739C216.545 10.4739 204.459 27.5277 204.459 50.087C204.459 72.6463 216.545 89.5658 239.104 89.5658Z" fill="white"/>
<path d="M327.364 98.1598V2.1485H340.12L383.896 68.8864C387.119 73.8548 390.879 81.2403 390.879 81.2403H391.147V2.1485H402.427V98.1598H390.073L346.029 31.2876C342.94 26.5877 338.912 19.3365 338.912 19.3365H338.643V98.1598H327.364Z" fill="white"/>
<path d="M439.671 98.1598L474.987 2.1485H488.55L524 98.1598H510.84L500.635 68.8864H462.365L452.025 98.1598H439.671ZM477.27 26.8563L465.856 59.0839H497.278L486.267 26.8563C484.387 21.485 481.97 13.2939 481.97 13.2939H481.701C481.701 13.2939 479.15 21.3508 477.27 26.8563Z" fill="white"/>
</svg>
